<svg xmlns="http://www.w3.org/2000/svg" width="1600" height="1100" viewBox="0 0 1600 1100">
<defs><marker id="arrow" markerWidth="7" markerHeight="7" refX="3.5" refY="3.5" orient="auto-start-reverse"><path d="M0 0 L7 3.5 L0 7" fill="none" stroke="#6b7d8b"/></marker></defs>
<rect width="1600" height="1100" fill="#f4f6f8"/>
<g font-family="Arial,sans-serif" fill="#192e3f">
<text x="65" y="70" font-size="35" font-weight="bold">RM8 / 2U coolant manifold</text>
<text x="65" y="108" font-size="19" fill="#526777">Revision G · Eight parallel circuits · All ports G1/4 female · Millimetres</text>
<text x="65" y="164" font-size="18" fill="#192e3f" text-anchor="start">FRONT / FLAT RACK FACEPLATE</text>
<rect x="160.55499999999995" y="220" width="1278.89" height="230.54999999999998" rx="0" fill="#d1d9de" stroke="#192e3f" stroke-width="1.2"/>
<circle cx="323.0" cy="388.275" r="42.4" fill="#263540" stroke="#6c808c"/>
<circle cx="323.0" cy="388.275" r="37.1" fill="#263540" stroke="#1673a4" stroke-width="2.5"/>
<circle cx="323.0" cy="388.275" r="17.433025" fill="#263540"/>
<text x="323.0" y="340.875" font-size="13" fill="#1673a4" text-anchor="middle">IN</text>
<circle cx="442.25" cy="388.275" r="42.4" fill="#263540" stroke="#6c808c"/>
<circle cx="442.25" cy="388.275" r="37.1" fill="#263540" stroke="#1673a4" stroke-width="2.5"/>
<circle cx="442.25" cy="388.275" r="17.433025" fill="#263540"/>
<text x="442.25" y="340.875" font-size="13" fill="#1673a4" text-anchor="middle">S1</text>
<circle cx="561.5" cy="388.275" r="42.4" fill="#263540" stroke="#6c808c"/>
<circle cx="561.5" cy="388.275" r="37.1" fill="#263540" stroke="#1673a4" stroke-width="2.5"/>
<circle cx="561.5" cy="388.275" r="17.433025" fill="#263540"/>
<text x="561.5" y="340.875" font-size="13" fill="#1673a4" text-anchor="middle">S2</text>
<circle cx="680.75" cy="388.275" r="42.4" fill="#263540" stroke="#6c808c"/>
<circle cx="680.75" cy="388.275" r="37.1" fill="#263540" stroke="#1673a4" stroke-width="2.5"/>
<circle cx="680.75" cy="388.275" r="17.433025" fill="#263540"/>
<text x="680.75" y="340.875" font-size="13" fill="#1673a4" text-anchor="middle">S3</text>
<circle cx="800.0" cy="388.275" r="42.4" fill="#263540" stroke="#6c808c"/>
<circle cx="800.0" cy="388.275" r="37.1" fill="#263540" stroke="#1673a4" stroke-width="2.5"/>
<circle cx="800.0" cy="388.275" r="17.433025" fill="#263540"/>
<text x="800.0" y="340.875" font-size="13" fill="#1673a4" text-anchor="middle">S4</text>
<circle cx="919.25" cy="388.275" r="42.4" fill="#263540" stroke="#6c808c"/>
<circle cx="919.25" cy="388.275" r="37.1" fill="#263540" stroke="#1673a4" stroke-width="2.5"/>
<circle cx="919.25" cy="388.275" r="17.433025" fill="#263540"/>
<text x="919.25" y="340.875" font-size="13" fill="#1673a4" text-anchor="middle">S5</text>
<circle cx="1038.5" cy="388.275" r="42.4" fill="#263540" stroke="#6c808c"/>
<circle cx="1038.5" cy="388.275" r="37.1" fill="#263540" stroke="#1673a4" stroke-width="2.5"/>
<circle cx="1038.5" cy="388.275" r="17.433025" fill="#263540"/>
<text x="1038.5" y="340.875" font-size="13" fill="#1673a4" text-anchor="middle">S6</text>
<circle cx="1157.75" cy="388.275" r="42.4" fill="#263540" stroke="#6c808c"/>
<circle cx="1157.75" cy="388.275" r="37.1" fill="#263540" stroke="#1673a4" stroke-width="2.5"/>
<circle cx="1157.75" cy="388.275" r="17.433025" fill="#263540"/>
<text x="1157.75" y="340.875" font-size="13" fill="#1673a4" text-anchor="middle">S7</text>
<circle cx="1277.0" cy="388.275" r="42.4" fill="#263540" stroke="#6c808c"/>
<circle cx="1277.0" cy="388.275" r="37.1" fill="#263540" stroke="#1673a4" stroke-width="2.5"/>
<circle cx="1277.0" cy="388.275" r="17.433025" fill="#263540"/>
<text x="1277.0" y="340.875" font-size="13" fill="#1673a4" text-anchor="middle">S8</text>
<circle cx="323.0" cy="282.275" r="42.4" fill="#263540" stroke="#6c808c"/>
<circle cx="323.0" cy="282.275" r="37.1" fill="#263540" stroke="#b64e2b" stroke-width="2.5"/>
<circle cx="323.0" cy="282.275" r="17.433025" fill="#263540"/>
<text x="323.0" y="234.87499999999997" font-size="13" fill="#b64e2b" text-anchor="middle">OUT</text>
<circle cx="442.25" cy="282.275" r="42.4" fill="#263540" stroke="#6c808c"/>
<circle cx="442.25" cy="282.275" r="37.1" fill="#263540" stroke="#b64e2b" stroke-width="2.5"/>
<circle cx="442.25" cy="282.275" r="17.433025" fill="#263540"/>
<text x="442.25" y="234.87499999999997" font-size="13" fill="#b64e2b" text-anchor="middle">R1</text>
<circle cx="561.5" cy="282.275" r="42.4" fill="#263540" stroke="#6c808c"/>
<circle cx="561.5" cy="282.275" r="37.1" fill="#263540" stroke="#b64e2b" stroke-width="2.5"/>
<circle cx="561.5" cy="282.275" r="17.433025" fill="#263540"/>
<text x="561.5" y="234.87499999999997" font-size="13" fill="#b64e2b" text-anchor="middle">R2</text>
<circle cx="680.75" cy="282.275" r="42.4" fill="#263540" stroke="#6c808c"/>
<circle cx="680.75" cy="282.275" r="37.1" fill="#263540" stroke="#b64e2b" stroke-width="2.5"/>
<circle cx="680.75" cy="282.275" r="17.433025" fill="#263540"/>
<text x="680.75" y="234.87499999999997" font-size="13" fill="#b64e2b" text-anchor="middle">R3</text>
<circle cx="800.0" cy="282.275" r="42.4" fill="#263540" stroke="#6c808c"/>
<circle cx="800.0" cy="282.275" r="37.1" fill="#263540" stroke="#b64e2b" stroke-width="2.5"/>
<circle cx="800.0" cy="282.275" r="17.433025" fill="#263540"/>
<text x="800.0" y="234.87499999999997" font-size="13" fill="#b64e2b" text-anchor="middle">R4</text>
<circle cx="919.25" cy="282.275" r="42.4" fill="#263540" stroke="#6c808c"/>
<circle cx="919.25" cy="282.275" r="37.1" fill="#263540" stroke="#b64e2b" stroke-width="2.5"/>
<circle cx="919.25" cy="282.275" r="17.433025" fill="#263540"/>
<text x="919.25" y="234.87499999999997" font-size="13" fill="#b64e2b" text-anchor="middle">R5</text>
<circle cx="1038.5" cy="282.275" r="42.4" fill="#263540" stroke="#6c808c"/>
<circle cx="1038.5" cy="282.275" r="37.1" fill="#263540" stroke="#b64e2b" stroke-width="2.5"/>
<circle cx="1038.5" cy="282.275" r="17.433025" fill="#263540"/>
<text x="1038.5" y="234.87499999999997" font-size="13" fill="#b64e2b" text-anchor="middle">R6</text>
<circle cx="1157.75" cy="282.275" r="42.4" fill="#263540" stroke="#6c808c"/>
<circle cx="1157.75" cy="282.275" r="37.1" fill="#263540" stroke="#b64e2b" stroke-width="2.5"/>
<circle cx="1157.75" cy="282.275" r="17.433025" fill="#263540"/>
<text x="1157.75" y="234.87499999999997" font-size="13" fill="#b64e2b" text-anchor="middle">R7</text>
<circle cx="1277.0" cy="282.275" r="42.4" fill="#263540" stroke="#6c808c"/>
<circle cx="1277.0" cy="282.275" r="37.1" fill="#263540" stroke="#b64e2b" stroke-width="2.5"/>
<circle cx="1277.0" cy="282.275" r="17.433025" fill="#263540"/>
<text x="1277.0" y="234.87499999999997" font-size="13" fill="#b64e2b" text-anchor="middle">R8</text>
<circle cx="248.80000000000007" cy="426.7" r="10.6" fill="#aab5bd" stroke="#71808b"/>
<circle cx="248.80000000000007" cy="335.275" r="10.6" fill="#aab5bd" stroke="#71808b"/>
<circle cx="248.80000000000007" cy="243.85" r="10.6" fill="#aab5bd" stroke="#71808b"/>
<circle cx="1351.1999999999998" cy="426.7" r="10.6" fill="#aab5bd" stroke="#71808b"/>
<circle cx="1351.1999999999998" cy="335.275" r="10.6" fill="#aab5bd" stroke="#71808b"/>
<circle cx="1351.1999999999998" cy="243.85" r="10.6" fill="#aab5bd" stroke="#71808b"/>
<circle cx="621.125" cy="335.275" r="10.6" fill="#aab5bd" stroke="#71808b"/>
<circle cx="978.875" cy="335.275" r="10.6" fill="#aab5bd" stroke="#71808b"/>
<rect x="170.49249999999995" y="426.96500000000003" width="26.5" height="18.55" rx="9.275" fill="#f4f6f8" stroke="#71808b" stroke-width="1.2"/>
<rect x="170.49249999999995" y="225.035" width="26.5" height="18.55" rx="9.275" fill="#f4f6f8" stroke="#71808b" stroke-width="1.2"/>
<rect x="1403.0075000000002" y="426.96500000000003" width="26.5" height="18.55" rx="9.275" fill="#f4f6f8" stroke="#71808b" stroke-width="1.2"/>
<rect x="1403.0075000000002" y="225.035" width="26.5" height="18.55" rx="9.275" fill="#f4f6f8" stroke="#71808b" stroke-width="1.2"/>
<line x1="160.55499999999995" y1="485.54999999999995" x2="1439.4450000000002" y2="485.54999999999995" stroke="#6b7d8b" stroke-width="1" stroke-dasharray="" marker-start="url(#arrow)" marker-end="url(#arrow)"/>
<text x="800" y="510.54999999999995" font-size="17" fill="#192e3f" text-anchor="middle">482.6 overall / rack centres 465.1 / 3 mm flat plate</text>
<line x1="1469.4450000000002" y1="220" x2="1469.4450000000002" y2="450.54999999999995" stroke="#6b7d8b" stroke-width="1" stroke-dasharray="" marker-start="url(#arrow)" marker-end="url(#arrow)"/>
<text x="1479.4450000000002" y="339.25" font-size="17" fill="#192e3f" text-anchor="start">87</text>
<line x1="442.25" y1="197" x2="561.5" y2="197" stroke="#6b7d8b" stroke-width="1" stroke-dasharray="" marker-start="url(#arrow)" marker-end="url(#arrow)"/>
<text x="501.875" y="186" font-size="15" fill="#192e3f" text-anchor="middle">45 pitch</text>
<text x="65" y="550" font-size="18" fill="#192e3f" text-anchor="start">REAR / COVER REMOVED</text>
<text x="65" y="578" font-size="16" fill="#526777" text-anchor="start">Two uninterrupted pockets, each with its own perimeter seal. No groups or internal plugs.</text>
<rect x="217.0" y="615" width="1166.0" height="230.54999999999998" rx="0" fill="#e1e6e9" stroke="#192e3f" stroke-width="1.2"/>
<rect x="270.0" y="746.175" width="1060.0" height="74.2" rx="37.1" fill="none" stroke="#333f48" stroke-width="1.2"/>
<rect x="285.9" y="762.0749999999999" width="1028.2" height="42.4" rx="21.2" fill="#258fc6" stroke="#258fc6" stroke-width="1.2"/>
<text x="800" y="788.275" font-size="16" fill="white" text-anchor="middle">SUPPLY — one common gallery</text>
<rect x="270.0" y="640.175" width="1060.0" height="74.2" rx="37.1" fill="none" stroke="#333f48" stroke-width="1.2"/>
<rect x="285.9" y="656.0749999999999" width="1028.2" height="42.4" rx="21.2" fill="#d66c3c" stroke="#d66c3c" stroke-width="1.2"/>
<text x="800" y="682.275" font-size="16" fill="white" text-anchor="middle">RETURN — one common gallery</text>
<circle cx="323.0" cy="830.975" r="4.3" fill="white" stroke="#758592"/>
<circle cx="442.25" cy="830.975" r="4.3" fill="white" stroke="#758592"/>
<circle cx="561.5" cy="830.975" r="4.3" fill="white" stroke="#758592"/>
<circle cx="680.75" cy="830.975" r="4.3" fill="white" stroke="#758592"/>
<circle cx="800.0" cy="830.975" r="4.3" fill="white" stroke="#758592"/>
<circle cx="919.25" cy="830.975" r="4.3" fill="white" stroke="#758592"/>
<circle cx="1038.5" cy="830.975" r="4.3" fill="white" stroke="#758592"/>
<circle cx="1157.75" cy="830.975" r="4.3" fill="white" stroke="#758592"/>
<circle cx="1277.0" cy="830.975" r="4.3" fill="white" stroke="#758592"/>
<circle cx="323.0" cy="730.275" r="4.3" fill="white" stroke="#758592"/>
<circle cx="442.25" cy="730.275" r="4.3" fill="white" stroke="#758592"/>
<circle cx="561.5" cy="730.275" r="4.3" fill="white" stroke="#758592"/>
<circle cx="680.75" cy="730.275" r="4.3" fill="white" stroke="#758592"/>
<circle cx="800.0" cy="730.275" r="4.3" fill="white" stroke="#758592"/>
<circle cx="919.25" cy="730.275" r="4.3" fill="white" stroke="#758592"/>
<circle cx="1038.5" cy="730.275" r="4.3" fill="white" stroke="#758592"/>
<circle cx="1157.75" cy="730.275" r="4.3" fill="white" stroke="#758592"/>
<circle cx="1277.0" cy="730.275" r="4.3" fill="white" stroke="#758592"/>
<circle cx="323.0" cy="629.575" r="4.3" fill="white" stroke="#758592"/>
<circle cx="442.25" cy="629.575" r="4.3" fill="white" stroke="#758592"/>
<circle cx="561.5" cy="629.575" r="4.3" fill="white" stroke="#758592"/>
<circle cx="680.75" cy="629.575" r="4.3" fill="white" stroke="#758592"/>
<circle cx="800.0" cy="629.575" r="4.3" fill="white" stroke="#758592"/>
<circle cx="919.25" cy="629.575" r="4.3" fill="white" stroke="#758592"/>
<circle cx="1038.5" cy="629.575" r="4.3" fill="white" stroke="#758592"/>
<circle cx="1157.75" cy="629.575" r="4.3" fill="white" stroke="#758592"/>
<circle cx="1277.0" cy="629.575" r="4.3" fill="white" stroke="#758592"/>
<circle cx="235.55000000000007" cy="783.275" r="4.3" fill="white" stroke="#758592"/>
<circle cx="235.55000000000007" cy="677.275" r="4.3" fill="white" stroke="#758592"/>
<circle cx="1364.4499999999998" cy="783.275" r="4.3" fill="white" stroke="#758592"/>
<circle cx="1364.4499999999998" cy="677.275" r="4.3" fill="white" stroke="#758592"/>
<text x="65" y="890" font-size="22" fill="#192e3f" text-anchor="start">Clearance around the couplings</text>
<text x="65" y="925" font-size="18" fill="#192e3f" text-anchor="start">Ø23.7 release rings: 21.3 horizontal gap / 16.3 vertical gap.</text>
<text x="65" y="954" font-size="18" fill="#192e3f" text-anchor="start">Ø28 POM bosses / Ø32 plate windows / sealing faces 3 mm proud of steel.</text>
<text x="65" y="985" font-size="17" fill="#526777" text-anchor="start">Integral female G1/4 ports; fittings seal on the raised POM annuli. Verify the actual O-ring footprint.</text>
<text x="65" y="1047" font-size="17" fill="#a55432" text-anchor="start">INITIAL MODEL / FOR FEEDBACK AND VENDOR DFM — NOT PRESSURE RATED</text>
<text x="1535" y="1047" font-size="16" fill="#526777" text-anchor="end">2026-09-14</text>
</g></svg>