ISO-10303-21;
HEADER;
FILE_DESCRIPTION(('Open CASCADE Model'),'2;1');
FILE_NAME('Open CASCADE Shape Model','2026-09-15T10:20:42',('Author'),(
    'Open CASCADE'),'Open CASCADE STEP processor 7.9','Open CASCADE 7.9'
  ,'Unknown');
FILE_SCHEMA(('AUTOMOTIVE_DESIGN { 1 0 10303 214 1 1 1 1 }'));
ENDSEC;
DATA;
#1 = APPLICATION_PROTOCOL_DEFINITION('international standard',
  'automotive_design',2000,#2);
#2 = APPLICATION_CONTEXT(
  'core data for automotive mechanical design processes');
#3 = SHAPE_DEFINITION_REPRESENTATION(#4,#10);
#4 = PRODUCT_DEFINITION_SHAPE('','',#5);
#5 = PRODUCT_DEFINITION('design','',#6,#9);
#6 = PRODUCT_DEFINITION_FORMATION('','',#7);
#7 = PRODUCT('Open CASCADE STEP translator 7.9 1',
  'Open CASCADE STEP translator 7.9 1','',(#8));
#8 = PRODUCT_CONTEXT('',#2,'mechanical');
#9 = PRODUCT_DEFINITION_CONTEXT('part definition',#2,'design');
#10 = ADVANCED_BREP_SHAPE_REPRESENTATION('',(#11,#15),#862);
#11 = AXIS2_PLACEMENT_3D('',#12,#13,#14);
#12 = CARTESIAN_POINT('',(0.,0.,0.));
#13 = DIRECTION('',(0.,0.,1.));
#14 = DIRECTION('',(1.,0.,-0.));
#15 = MANIFOLD_SOLID_BREP('',#16);
#16 = CLOSED_SHELL('',(#17,#243,#298,#460,#495,#571,#620,#669,#718,#767,
    #794,#849,#858));
#17 = ADVANCED_FACE('',(#18,#164),#31,.T.);
#18 = FACE_BOUND('',#19,.T.);
#19 = EDGE_LOOP('',(#20));
#20 = ORIENTED_EDGE('',*,*,#21,.F.);
#21 = EDGE_CURVE('',#22,#22,#24,.T.);
#22 = VERTEX_POINT('',#23);
#23 = CARTESIAN_POINT('',(0.,-0.3,3.8));
#24 = SURFACE_CURVE('',#25,(#30,#153),.PCURVE_S1.);
#25 = CIRCLE('',#26,3.8);
#26 = AXIS2_PLACEMENT_3D('',#27,#28,#29);
#27 = CARTESIAN_POINT('',(0.,-0.3,0.));
#28 = DIRECTION('',(-0.,1.,0.));
#29 = DIRECTION('',(0.,0.,1.));
#30 = PCURVE('',#31,#36);
#31 = SPHERICAL_SURFACE('',#32,4.381818181818);
#32 = AXIS2_PLACEMENT_3D('',#33,#34,#35);
#33 = CARTESIAN_POINT('',(0.,1.881818181818,0.));
#34 = DIRECTION('',(0.,0.,1.));
#35 = DIRECTION('',(1.,0.,-0.));
#36 = DEFINITIONAL_REPRESENTATION('',(#37),#152);
#37 = B_SPLINE_CURVE_WITH_KNOTS('',8,(#38,#39,#40,#41,#42,#43,#44,#45,
    #46,#47,#48,#49,#50,#51,#52,#53,#54,#55,#56,#57,#58,#59,#60,#61,#62,
    #63,#64,#65,#66,#67,#68,#69,#70,#71,#72,#73,#74,#75,#76,#77,#78,#79,
    #80,#81,#82,#83,#84,#85,#86,#87,#88,#89,#90,#91,#92,#93,#94,#95,#96,
    #97,#98,#99,#100,#101,#102,#103,#104,#105,#106,#107,#108,#109,#110,
    #111,#112,#113,#114,#115,#116,#117,#118,#119,#120,#121,#122,#123,
    #124,#125,#126,#127,#128,#129,#130,#131,#132,#133,#134,#135,#136,
    #137,#138,#139,#140,#141,#142,#143,#144,#145,#146,#147,#148,#149,
    #150,#151),.UNSPECIFIED.,.T.,.F.,(9,7,7,7,7,7,7,7,7,7,7,7,7,7,7,7,9)
  ,(0.,0.196349540849,0.576776776245,0.933427309428,1.602147059147,
    2.187276840152,2.69926539853,2.923260392821,3.133255699968,
    3.330126300419,3.699258676264,4.022249505128,4.587483455641,
    5.43533438141,5.859259844295,6.071222575737,6.28318530718),
  .UNSPECIFIED.);
#38 = CARTESIAN_POINT('',(4.712388980385,1.0495915433));
#39 = CARTESIAN_POINT('',(4.755135911674,1.0495915433));
#40 = CARTESIAN_POINT('',(4.797882712998,1.0483925396));
#41 = CARTESIAN_POINT('',(4.840352785121,1.045994318257));
#42 = CARTESIAN_POINT('',(4.882267368801,1.04241279739));
#43 = CARTESIAN_POINT('',(4.923371959924,1.037678987412));
#44 = CARTESIAN_POINT('',(4.963453191094,1.031836672279));
#45 = CARTESIAN_POINT('',(5.002346179677,1.024938811776));
#46 = CARTESIAN_POINT('',(5.112755532423,1.001743880128));
#47 = CARTESIAN_POINT('',(5.180672896212,0.98269784716));
#48 = CARTESIAN_POINT('',(5.242818926204,0.960322288627));
#49 = CARTESIAN_POINT('',(5.298978557652,0.935106984641));
#50 = CARTESIAN_POINT('',(5.3495047901,0.90750518275));
#51 = CARTESIAN_POINT('',(5.394852564729,0.877891954828));
#52 = CARTESIAN_POINT('',(5.435534172217,0.846581968776));
#53 = CARTESIAN_POINT('',(5.506250878396,0.783132153055));
#54 = CARTESIAN_POINT('',(5.536792543919,0.751166511535));
#55 = CARTESIAN_POINT('',(5.564058158176,0.718150059549));
#56 = CARTESIAN_POINT('',(5.588429595171,0.684253485436));
#57 = CARTESIAN_POINT('',(5.610236687644,0.649613459455));
#58 = CARTESIAN_POINT('',(5.629756623127,0.614341082757));
#59 = CARTESIAN_POINT('',(5.647225329089,0.578528741939));
#60 = CARTESIAN_POINT('',(5.692116269294,0.474238648064));
#61 = CARTESIAN_POINT('',(5.71487343077,0.404597590958));
#62 = CARTESIAN_POINT('',(5.732411727655,0.333841474059));
#63 = CARTESIAN_POINT('',(5.745560684303,0.262301895272));
#64 = CARTESIAN_POINT('',(5.754845007638,0.190228781273));
#65 = CARTESIAN_POINT('',(5.760578558961,0.117831164611));
#66 = CARTESIAN_POINT('',(5.762900513516,4.529517419708E-02));
#67 = CARTESIAN_POINT('',(5.760777530766,-9.060866803139E-02));
#68 = CARTESIAN_POINT('',(5.757142185876,-0.153989233813));
#69 = CARTESIAN_POINT('',(5.750833979053,-0.217199856711));
#70 = CARTESIAN_POINT('',(5.741718057482,-0.280109694492));
#71 = CARTESIAN_POINT('',(5.729550489388,-0.342571393992));
#72 = CARTESIAN_POINT('',(5.713954857668,-0.404409604172));
#73 = CARTESIAN_POINT('',(5.694372336517,-0.465398428989));
#74 = CARTESIAN_POINT('',(5.648636090338,-0.577552366815));
#75 = CARTESIAN_POINT('',(5.623609838563,-0.628992527163));
#76 = CARTESIAN_POINT('',(5.594349156098,-0.679316685675));
#77 = CARTESIAN_POINT('',(5.56015153957,-0.728251683182));
#78 = CARTESIAN_POINT('',(5.520111699611,-0.775433788653));
#79 = CARTESIAN_POINT('',(5.47312241369,-0.820392024219));
#80 = CARTESIAN_POINT('',(5.417759875308,-0.862440487852));
#81 = CARTESIAN_POINT('',(5.324682151648,-0.91742706723));
#82 = CARTESIAN_POINT('',(5.294557178048,-0.933435388648));
#83 = CARTESIAN_POINT('',(5.262551241358,-0.948642643411));
#84 = CARTESIAN_POINT('',(5.228592886074,-0.962967527403));
#85 = CARTESIAN_POINT('',(5.19263860868,-0.976321568299));
#86 = CARTESIAN_POINT('',(5.154689019933,-0.988611154965));
#87 = CARTESIAN_POINT('',(5.114805754273,-0.999741802525));
#88 = CARTESIAN_POINT('',(5.034057287717,-1.018889825523));
#89 = CARTESIAN_POINT('',(4.993409047671,-1.027058235458));
#90 = CARTESIAN_POINT('',(4.95129891282,-1.03405707849));
#91 = CARTESIAN_POINT('',(4.907898867503,-1.039816956118));
#92 = CARTESIAN_POINT('',(4.863446796919,-1.044278557889));
#93 = CARTESIAN_POINT('',(4.818240099606,-1.047397871053));
#94 = CARTESIAN_POINT('',(4.772614489291,-1.049149917754));
#95 = CARTESIAN_POINT('',(4.684058139379,-1.049888302867));
#96 = CARTESIAN_POINT('',(4.641137467935,-1.049040631591));
#97 = CARTESIAN_POINT('',(4.598424248533,-1.046984471099));
#98 = CARTESIAN_POINT('',(4.556202982817,-1.043732531009));
#99 = CARTESIAN_POINT('',(4.514737014079,-1.039313116147));
#100 = CARTESIAN_POINT('',(4.47425044825,-1.033768024543));
#101 = CARTESIAN_POINT('',(4.434919379103,-1.027148992654));
#102 = CARTESIAN_POINT('',(4.325534365005,-1.005194616218));
#103 = CARTESIAN_POINT('',(4.258711016419,-0.987300400994));
#104 = CARTESIAN_POINT('',(4.197253485808,-0.966204761709));
#105 = CARTESIAN_POINT('',(4.141434230267,-0.942353394039));
#106 = CARTESIAN_POINT('',(4.090988234158,-0.916168606208));
#107 = CARTESIAN_POINT('',(4.045522993992,-0.888004916855));
#108 = CARTESIAN_POINT('',(4.004579415915,-0.858162775192));
#109 = CARTESIAN_POINT('',(3.93545304404,-0.799528319493));
#110 = CARTESIAN_POINT('',(3.906314843596,-0.771071076588));
#111 = CARTESIAN_POINT('',(3.879998045372,-0.741686312182));
#112 = CARTESIAN_POINT('',(3.856208903596,-0.711511354337));
#113 = CARTESIAN_POINT('',(3.834685571207,-0.680658682426));
#114 = CARTESIAN_POINT('',(3.815201665068,-0.649221336461));
#115 = CARTESIAN_POINT('',(3.797560653639,-0.61727764724));
#116 = CARTESIAN_POINT('',(3.753654000531,-0.528222610214));
#117 = CARTESIAN_POINT('',(3.730842978527,-0.470203885253));
#118 = CARTESIAN_POINT('',(3.712259467245,-0.411193672745));
#119 = CARTESIAN_POINT('',(3.697265992027,-0.351437804128));
#120 = CARTESIAN_POINT('',(3.685416916919,-0.291123010831));
#121 = CARTESIAN_POINT('',(3.676404545343,-0.230401640654));
#122 = CARTESIAN_POINT('',(3.670027061013,-0.169403782704));
#123 = CARTESIAN_POINT('',(3.660412651831,-1.65203555446E-02));
#124 = CARTESIAN_POINT('',(3.660339877368,7.555960907141E-02));
#125 = CARTESIAN_POINT('',(3.665616130019,0.167582086274));
#126 = CARTESIAN_POINT('',(3.676371867301,0.259186448826));
#127 = CARTESIAN_POINT('',(3.693181759358,0.349980457184));
#128 = CARTESIAN_POINT('',(3.717069427689,0.439458799224));
#129 = CARTESIAN_POINT('',(3.749926566799,0.526929344665));
#130 = CARTESIAN_POINT('',(3.817629363879,0.65314990081));
#131 = CARTESIAN_POINT('',(3.8432666266,0.694392421588));
#132 = CARTESIAN_POINT('',(3.872384476417,0.734640192131));
#133 = CARTESIAN_POINT('',(3.905488144508,0.77368765799));
#134 = CARTESIAN_POINT('',(3.943166359886,0.811281386684));
#135 = CARTESIAN_POINT('',(3.986126979971,0.847091995334));
#136 = CARTESIAN_POINT('',(4.035137353716,0.880689935677));
#137 = CARTESIAN_POINT('',(4.118522887099,0.926981517669));
#138 = CARTESIAN_POINT('',(4.147963164368,0.941727869019));
#139 = CARTESIAN_POINT('',(4.179113887651,0.955724584205));
#140 = CARTESIAN_POINT('',(4.212027231775,0.968900706794));
#141 = CARTESIAN_POINT('',(4.246729251849,0.981179969976));
#142 = CARTESIAN_POINT('',(4.283207149206,0.992482637361));
#143 = CARTESIAN_POINT('',(4.3213967513,1.002728998696));
#144 = CARTESIAN_POINT('',(4.400943659818,1.02096004233));
#145 = CARTESIAN_POINT('',(4.442301098256,1.028944647772));
#146 = CARTESIAN_POINT('',(4.485115888635,1.035724216618));
#147 = CARTESIAN_POINT('',(4.529200442584,1.041228728131));
#148 = CARTESIAN_POINT('',(4.574299213835,1.045399442619));
#149 = CARTESIAN_POINT('',(4.620097054216,1.048194301132));
#150 = CARTESIAN_POINT('',(4.666242927394,1.0495915433));
#151 = CARTESIAN_POINT('',(4.712388980385,1.0495915433));
#152 = ( GEOMETRIC_REPRESENTATION_CONTEXT(2) 
PARAMETRIC_REPRESENTATION_CONTEXT() REPRESENTATION_CONTEXT('2D SPACE',''
  ) );
#153 = PCURVE('',#154,#159);
#154 = CYLINDRICAL_SURFACE('',#155,3.8);
#155 = AXIS2_PLACEMENT_3D('',#156,#157,#158);
#156 = CARTESIAN_POINT('',(0.,-0.3,0.));
#157 = DIRECTION('',(0.,1.,0.));
#158 = DIRECTION('',(0.,-0.,1.));
#159 = DEFINITIONAL_REPRESENTATION('',(#160),#163);
#160 = B_SPLINE_CURVE_WITH_KNOTS('',1,(#161,#162),.UNSPECIFIED.,.F.,.F.,
  (2,2),(0.,6.28318530718),.PIECEWISE_BEZIER_KNOTS.);
#161 = CARTESIAN_POINT('',(0.,0.));
#162 = CARTESIAN_POINT('',(6.28318530718,0.));
#163 = ( GEOMETRIC_REPRESENTATION_CONTEXT(2) 
PARAMETRIC_REPRESENTATION_CONTEXT() REPRESENTATION_CONTEXT('2D SPACE',''
  ) );
#164 = FACE_BOUND('',#165,.T.);
#165 = EDGE_LOOP('',(#166));
#166 = ORIENTED_EDGE('',*,*,#167,.T.);
#167 = EDGE_CURVE('',#168,#168,#170,.T.);
#168 = VERTEX_POINT('',#169);
#169 = CARTESIAN_POINT('',(0.,-2.2,1.593452512343));
#170 = SURFACE_CURVE('',#171,(#176,#231),.PCURVE_S1.);
#171 = CIRCLE('',#172,1.593452512343);
#172 = AXIS2_PLACEMENT_3D('',#173,#174,#175);
#173 = CARTESIAN_POINT('',(0.,-2.2,0.));
#174 = DIRECTION('',(-0.,1.,0.));
#175 = DIRECTION('',(0.,0.,1.));
#176 = PCURVE('',#31,#177);
#177 = DEFINITIONAL_REPRESENTATION('',(#178),#230);
#178 = B_SPLINE_CURVE_WITH_KNOTS('',8,(#179,#180,#181,#182,#183,#184,
    #185,#186,#187,#188,#189,#190,#191,#192,#193,#194,#195,#196,#197,
    #198,#199,#200,#201,#202,#203,#204,#205,#206,#207,#208,#209,#210,
    #211,#212,#213,#214,#215,#216,#217,#218,#219,#220,#221,#222,#223,
    #224,#225,#226,#227,#228,#229),.UNSPECIFIED.,.T.,.F.,(9,7,7,7,7,7,7,
    9),(0.,0.785398163397,2.159844949343,3.190680038802,3.963806355896,
    5.123495831538,5.703340569359,6.28318530718),.UNSPECIFIED.);
#179 = CARTESIAN_POINT('',(4.712388980385,0.372184233433));
#180 = CARTESIAN_POINT('',(4.750714262799,0.372184233433));
#181 = CARTESIAN_POINT('',(4.789039291649,0.367884143966));
#182 = CARTESIAN_POINT('',(4.826631362856,0.359284015935));
#183 = CARTESIAN_POINT('',(4.86275089668,0.346512365355));
#184 = CARTESIAN_POINT('',(4.896751773783,0.329828064557));
#185 = CARTESIAN_POINT('',(4.928132629842,0.309584298616));
#186 = CARTESIAN_POINT('',(4.956539586937,0.286184678036));
#187 = CARTESIAN_POINT('',(5.025788197723,0.214346209968));
#188 = CARTESIAN_POINT('',(5.059978024824,0.160290270947));
#189 = CARTESIAN_POINT('',(5.082945495928,0.100209155469));
#190 = CARTESIAN_POINT('',(5.094376589225,3.668750973372E-02));
#191 = CARTESIAN_POINT('',(5.094402408434,-2.785515536241E-02));
#192 = CARTESIAN_POINT('',(5.08291873876,-9.105474533332E-02));
#193 = CARTESIAN_POINT('',(5.059957863,-0.150392132426));
#194 = CARTESIAN_POINT('',(5.000965222624,-0.24321533436));
#195 = CARTESIAN_POINT('',(4.96963656927,-0.279455510576));
#196 = CARTESIAN_POINT('',(4.932567026809,-0.311126929915));
#197 = CARTESIAN_POINT('',(4.890295273818,-0.337231961404));
#198 = CARTESIAN_POINT('',(4.843673970969,-0.356843447243));
#199 = CARTESIAN_POINT('',(4.794155786157,-0.369254842698));
#200 = CARTESIAN_POINT('',(4.743459290985,-0.374181795217));
#201 = CARTESIAN_POINT('',(4.655569189913,-0.369863239379));
#202 = CARTESIAN_POINT('',(4.618168709485,-0.363852992909));
#203 = CARTESIAN_POINT('',(4.581731072489,-0.353721578406));
#204 = CARTESIAN_POINT('',(4.546939513009,-0.339627694583));
#205 = CARTESIAN_POINT('',(4.514373914771,-0.321845594404));
#206 = CARTESIAN_POINT('',(4.484474447968,-0.300729739165));
#207 = CARTESIAN_POINT('',(4.457548975541,-0.27667524548));
#208 = CARTESIAN_POINT('',(4.39821132357,-0.210238102539));
#209 = CARTESIAN_POINT('',(4.369786648455,-0.164704958687));
#210 = CARTESIAN_POINT('',(4.349267568855,-0.114911532788));
#211 = CARTESIAN_POINT('',(4.336891443662,-6.238243029945E-02));
#212 = CARTESIAN_POINT('',(4.332655552041,-8.589395608272E-03));
#213 = CARTESIAN_POINT('',(4.336589246492,4.503016386552E-02));
#214 = CARTESIAN_POINT('',(4.348689364008,9.699868850174E-02));
#215 = CARTESIAN_POINT('',(4.378760437936,0.170260915946));
#216 = CARTESIAN_POINT('',(4.390771036944,0.193899895017));
#217 = CARTESIAN_POINT('',(4.404740536655,0.216572581791));
#218 = CARTESIAN_POINT('',(4.420628647293,0.238094562389));
#219 = CARTESIAN_POINT('',(4.438374130952,0.25828255422));
#220 = CARTESIAN_POINT('',(4.457887269745,0.276957651184));
#221 = CARTESIAN_POINT('',(4.47904346743,0.293950797797));
#222 = CARTESIAN_POINT('',(4.524312501609,0.324270186663));
#223 = CARTESIAN_POINT('',(4.548425400589,0.337596329137));
#224 = CARTESIAN_POINT('',(4.573852807723,0.348937814742));
#225 = CARTESIAN_POINT('',(4.600391931696,0.358159665058));
#226 = CARTESIAN_POINT('',(4.627799761282,0.365152678254));
#227 = CARTESIAN_POINT('',(4.65579941503,0.369840516894));
#228 = CARTESIAN_POINT('',(4.684094142977,0.372184233433));
#229 = CARTESIAN_POINT('',(4.712388980385,0.372184233433));
#230 = ( GEOMETRIC_REPRESENTATION_CONTEXT(2) 
PARAMETRIC_REPRESENTATION_CONTEXT() REPRESENTATION_CONTEXT('2D SPACE',''
  ) );
#231 = PCURVE('',#232,#237);
#232 = PLANE('',#233);
#233 = AXIS2_PLACEMENT_3D('',#234,#235,#236);
#234 = CARTESIAN_POINT('',(-10.,-2.2,-10.));
#235 = DIRECTION('',(-0.,1.,0.));
#236 = DIRECTION('',(0.,0.,1.));
#237 = DEFINITIONAL_REPRESENTATION('',(#238),#242);
#238 = CIRCLE('',#239,1.593452512343);
#239 = AXIS2_PLACEMENT_2D('',#240,#241);
#240 = CARTESIAN_POINT('',(10.,10.));
#241 = DIRECTION('',(1.,0.));
#242 = ( GEOMETRIC_REPRESENTATION_CONTEXT(2) 
PARAMETRIC_REPRESENTATION_CONTEXT() REPRESENTATION_CONTEXT('2D SPACE',''
  ) );
#243 = ADVANCED_FACE('',(#244),#154,.T.);
#244 = FACE_BOUND('',#245,.T.);
#245 = EDGE_LOOP('',(#246,#275,#296,#297));
#246 = ORIENTED_EDGE('',*,*,#247,.F.);
#247 = EDGE_CURVE('',#248,#248,#250,.T.);
#248 = VERTEX_POINT('',#249);
#249 = CARTESIAN_POINT('',(-9.30731567352E-16,0.,3.8));
#250 = SURFACE_CURVE('',#251,(#256,#263),.PCURVE_S1.);
#251 = CIRCLE('',#252,3.8);
#252 = AXIS2_PLACEMENT_3D('',#253,#254,#255);
#253 = CARTESIAN_POINT('',(0.,0.,0.));
#254 = DIRECTION('',(0.,1.,0.));
#255 = DIRECTION('',(0.,-0.,1.));
#256 = PCURVE('',#154,#257);
#257 = DEFINITIONAL_REPRESENTATION('',(#258),#262);
#258 = LINE('',#259,#260);
#259 = CARTESIAN_POINT('',(0.,0.3));
#260 = VECTOR('',#261,1.);
#261 = DIRECTION('',(1.,0.));
#262 = ( GEOMETRIC_REPRESENTATION_CONTEXT(2) 
PARAMETRIC_REPRESENTATION_CONTEXT() REPRESENTATION_CONTEXT('2D SPACE',''
  ) );
#263 = PCURVE('',#264,#269);
#264 = PLANE('',#265);
#265 = AXIS2_PLACEMENT_3D('',#266,#267,#268);
#266 = CARTESIAN_POINT('',(0.,0.,0.));
#267 = DIRECTION('',(0.,1.,0.));
#268 = DIRECTION('',(0.,-0.,1.));
#269 = DEFINITIONAL_REPRESENTATION('',(#270),#274);
#270 = CIRCLE('',#271,3.8);
#271 = AXIS2_PLACEMENT_2D('',#272,#273);
#272 = CARTESIAN_POINT('',(0.,0.));
#273 = DIRECTION('',(1.,0.));
#274 = ( GEOMETRIC_REPRESENTATION_CONTEXT(2) 
PARAMETRIC_REPRESENTATION_CONTEXT() REPRESENTATION_CONTEXT('2D SPACE',''
  ) );
#275 = ORIENTED_EDGE('',*,*,#276,.F.);
#276 = EDGE_CURVE('',#22,#248,#277,.T.);
#277 = SEAM_CURVE('',#278,(#282,#289),.PCURVE_S1.);
#278 = LINE('',#279,#280);
#279 = CARTESIAN_POINT('',(-9.30731567352E-16,-0.3,3.8));
#280 = VECTOR('',#281,1.);
#281 = DIRECTION('',(0.,1.,0.));
#282 = PCURVE('',#154,#283);
#283 = DEFINITIONAL_REPRESENTATION('',(#284),#288);
#284 = LINE('',#285,#286);
#285 = CARTESIAN_POINT('',(6.28318530718,-0.));
#286 = VECTOR('',#287,1.);
#287 = DIRECTION('',(0.,1.));
#288 = ( GEOMETRIC_REPRESENTATION_CONTEXT(2) 
PARAMETRIC_REPRESENTATION_CONTEXT() REPRESENTATION_CONTEXT('2D SPACE',''
  ) );
#289 = PCURVE('',#154,#290);
#290 = DEFINITIONAL_REPRESENTATION('',(#291),#295);
#291 = LINE('',#292,#293);
#292 = CARTESIAN_POINT('',(0.,-0.));
#293 = VECTOR('',#294,1.);
#294 = DIRECTION('',(0.,1.));
#295 = ( GEOMETRIC_REPRESENTATION_CONTEXT(2) 
PARAMETRIC_REPRESENTATION_CONTEXT() REPRESENTATION_CONTEXT('2D SPACE',''
  ) );
#296 = ORIENTED_EDGE('',*,*,#21,.T.);
#297 = ORIENTED_EDGE('',*,*,#276,.T.);
#298 = ADVANCED_FACE('',(#299,#302),#232,.F.);
#299 = FACE_BOUND('',#300,.F.);
#300 = EDGE_LOOP('',(#301));
#301 = ORIENTED_EDGE('',*,*,#167,.T.);
#302 = FACE_BOUND('',#303,.F.);
#303 = EDGE_LOOP('',(#304,#332,#358,#384,#410,#436));
#304 = ORIENTED_EDGE('',*,*,#305,.F.);
#305 = EDGE_CURVE('',#306,#308,#310,.T.);
#306 = VERTEX_POINT('',#307);
#307 = CARTESIAN_POINT('',(0.721687836487,-2.2,1.25));
#308 = VERTEX_POINT('',#309);
#309 = CARTESIAN_POINT('',(1.443375672974,-2.2,0.));
#310 = SURFACE_CURVE('',#311,(#315,#321),.PCURVE_S1.);
#311 = LINE('',#312,#313);
#312 = CARTESIAN_POINT('',(2.178017223313,-2.2,-1.272436490539));
#313 = VECTOR('',#314,1.);
#314 = DIRECTION('',(0.5,0.,-0.866025403784));
#315 = PCURVE('',#232,#316);
#316 = DEFINITIONAL_REPRESENTATION('',(#317),#320);
#317 = B_SPLINE_CURVE_WITH_KNOTS('',1,(#318,#319),.UNSPECIFIED.,.F.,.F.,
  (2,2),(-2.912658773653,-1.469283100679),.PIECEWISE_BEZIER_KNOTS.);
#318 = CARTESIAN_POINT('',(11.25,10.721687836487));
#319 = CARTESIAN_POINT('',(10.,11.443375672974));
#320 = ( GEOMETRIC_REPRESENTATION_CONTEXT(2) 
PARAMETRIC_REPRESENTATION_CONTEXT() REPRESENTATION_CONTEXT('2D SPACE',''
  ) );
#321 = PCURVE('',#322,#327);
#322 = PLANE('',#323);
#323 = AXIS2_PLACEMENT_3D('',#324,#325,#326);
#324 = CARTESIAN_POINT('',(1.443375672974,-2.3,0.));
#325 = DIRECTION('',(0.866025403784,0.,0.5));
#326 = DIRECTION('',(-0.5,0.,0.866025403784));
#327 = DEFINITIONAL_REPRESENTATION('',(#328),#331);
#328 = B_SPLINE_CURVE_WITH_KNOTS('',1,(#329,#330),.UNSPECIFIED.,.F.,.F.,
  (2,2),(-2.912658773653,-1.469283100679),.PIECEWISE_BEZIER_KNOTS.);
#329 = CARTESIAN_POINT('',(1.443375672974,-0.1));
#330 = CARTESIAN_POINT('',(0.,-0.1));
#331 = ( GEOMETRIC_REPRESENTATION_CONTEXT(2) 
PARAMETRIC_REPRESENTATION_CONTEXT() REPRESENTATION_CONTEXT('2D SPACE',''
  ) );
#332 = ORIENTED_EDGE('',*,*,#333,.F.);
#333 = EDGE_CURVE('',#334,#306,#336,.T.);
#334 = VERTEX_POINT('',#335);
#335 = CARTESIAN_POINT('',(-0.721687836487,-2.2,1.25));
#336 = SURFACE_CURVE('',#337,(#341,#347),.PCURVE_S1.);
#337 = LINE('',#338,#339);
#338 = CARTESIAN_POINT('',(-4.639156081756,-2.2,1.25));
#339 = VECTOR('',#340,1.);
#340 = DIRECTION('',(1.,0.,-1.538370149107E-16));
#341 = PCURVE('',#232,#342);
#342 = DEFINITIONAL_REPRESENTATION('',(#343),#346);
#343 = B_SPLINE_CURVE_WITH_KNOTS('',1,(#344,#345),.UNSPECIFIED.,.F.,.F.,
  (2,2),(3.917468245269,5.360843918244),.PIECEWISE_BEZIER_KNOTS.);
#344 = CARTESIAN_POINT('',(11.25,9.278312163513));
#345 = CARTESIAN_POINT('',(11.25,10.721687836487));
#346 = ( GEOMETRIC_REPRESENTATION_CONTEXT(2) 
PARAMETRIC_REPRESENTATION_CONTEXT() REPRESENTATION_CONTEXT('2D SPACE',''
  ) );
#347 = PCURVE('',#348,#353);
#348 = PLANE('',#349);
#349 = AXIS2_PLACEMENT_3D('',#350,#351,#352);
#350 = CARTESIAN_POINT('',(0.721687836487,-2.3,1.25));
#351 = DIRECTION('',(1.538370149107E-16,0.,1.));
#352 = DIRECTION('',(-1.,0.,1.538370149107E-16));
#353 = DEFINITIONAL_REPRESENTATION('',(#354),#357);
#354 = B_SPLINE_CURVE_WITH_KNOTS('',1,(#355,#356),.UNSPECIFIED.,.F.,.F.,
  (2,2),(3.917468245269,5.360843918244),.PIECEWISE_BEZIER_KNOTS.);
#355 = CARTESIAN_POINT('',(1.443375672974,-0.1));
#356 = CARTESIAN_POINT('',(0.,-0.1));
#357 = ( GEOMETRIC_REPRESENTATION_CONTEXT(2) 
PARAMETRIC_REPRESENTATION_CONTEXT() REPRESENTATION_CONTEXT('2D SPACE',''
  ) );
#358 = ORIENTED_EDGE('',*,*,#359,.F.);
#359 = EDGE_CURVE('',#360,#334,#362,.T.);
#360 = VERTEX_POINT('',#361);
#361 = CARTESIAN_POINT('',(-1.443375672974,-2.2,1.767625397875E-16));
#362 = SURFACE_CURVE('',#363,(#367,#373),.PCURVE_S1.);
#363 = LINE('',#364,#365);
#364 = CARTESIAN_POINT('',(-4.31717330507,-2.2,-4.977563509461));
#365 = VECTOR('',#366,1.);
#366 = DIRECTION('',(0.5,0.,0.866025403784));
#367 = PCURVE('',#232,#368);
#368 = DEFINITIONAL_REPRESENTATION('',(#369),#372);
#369 = B_SPLINE_CURVE_WITH_KNOTS('',1,(#370,#371),.UNSPECIFIED.,.F.,.F.,
  (2,2),(5.747595264192,7.190970937166),.PIECEWISE_BEZIER_KNOTS.);
#370 = CARTESIAN_POINT('',(10.,8.556624327026));
#371 = CARTESIAN_POINT('',(11.25,9.278312163513));
#372 = ( GEOMETRIC_REPRESENTATION_CONTEXT(2) 
PARAMETRIC_REPRESENTATION_CONTEXT() REPRESENTATION_CONTEXT('2D SPACE',''
  ) );
#373 = PCURVE('',#374,#379);
#374 = PLANE('',#375);
#375 = AXIS2_PLACEMENT_3D('',#376,#377,#378);
#376 = CARTESIAN_POINT('',(-0.721687836487,-2.3,1.25));
#377 = DIRECTION('',(-0.866025403784,0.,0.5));
#378 = DIRECTION('',(-0.5,0.,-0.866025403784));
#379 = DEFINITIONAL_REPRESENTATION('',(#380),#383);
#380 = B_SPLINE_CURVE_WITH_KNOTS('',1,(#381,#382),.UNSPECIFIED.,.F.,.F.,
  (2,2),(5.747595264192,7.190970937166),.PIECEWISE_BEZIER_KNOTS.);
#381 = CARTESIAN_POINT('',(1.443375672974,-0.1));
#382 = CARTESIAN_POINT('',(0.,-0.1));
#383 = ( GEOMETRIC_REPRESENTATION_CONTEXT(2) 
PARAMETRIC_REPRESENTATION_CONTEXT() REPRESENTATION_CONTEXT('2D SPACE',''
  ) );
#384 = ORIENTED_EDGE('',*,*,#385,.F.);
#385 = EDGE_CURVE('',#386,#360,#388,.T.);
#386 = VERTEX_POINT('',#387);
#387 = CARTESIAN_POINT('',(-0.721687836487,-2.2,-1.25));
#388 = SURFACE_CURVE('',#389,(#393,#399),.PCURVE_S1.);
#389 = LINE('',#390,#391);
#390 = CARTESIAN_POINT('',(-0.347890204391,-2.2,-1.897436490539));
#391 = VECTOR('',#392,1.);
#392 = DIRECTION('',(-0.5,-0.,0.866025403784));
#393 = PCURVE('',#232,#394);
#394 = DEFINITIONAL_REPRESENTATION('',(#395),#398);
#395 = B_SPLINE_CURVE_WITH_KNOTS('',1,(#396,#397),.UNSPECIFIED.,.F.,.F.,
  (2,2),(0.747595264192,2.190970937166),.PIECEWISE_BEZIER_KNOTS.);
#396 = CARTESIAN_POINT('',(8.75,9.278312163513));
#397 = CARTESIAN_POINT('',(10.,8.556624327026));
#398 = ( GEOMETRIC_REPRESENTATION_CONTEXT(2) 
PARAMETRIC_REPRESENTATION_CONTEXT() REPRESENTATION_CONTEXT('2D SPACE',''
  ) );
#399 = PCURVE('',#400,#405);
#400 = PLANE('',#401);
#401 = AXIS2_PLACEMENT_3D('',#402,#403,#404);
#402 = CARTESIAN_POINT('',(-1.443375672974,-2.3,1.767625397875E-16));
#403 = DIRECTION('',(-0.866025403784,-0.,-0.5));
#404 = DIRECTION('',(0.5,0.,-0.866025403784));
#405 = DEFINITIONAL_REPRESENTATION('',(#406),#409);
#406 = B_SPLINE_CURVE_WITH_KNOTS('',1,(#407,#408),.UNSPECIFIED.,.F.,.F.,
  (2,2),(0.747595264192,2.190970937166),.PIECEWISE_BEZIER_KNOTS.);
#407 = CARTESIAN_POINT('',(1.443375672974,-0.1));
#408 = CARTESIAN_POINT('',(0.,-0.1));
#409 = ( GEOMETRIC_REPRESENTATION_CONTEXT(2) 
PARAMETRIC_REPRESENTATION_CONTEXT() REPRESENTATION_CONTEXT('2D SPACE',''
  ) );
#410 = ORIENTED_EDGE('',*,*,#411,.F.);
#411 = EDGE_CURVE('',#412,#386,#414,.T.);
#412 = VERTEX_POINT('',#413);
#413 = CARTESIAN_POINT('',(0.721687836487,-2.2,-1.25));
#414 = SURFACE_CURVE('',#415,(#419,#425),.PCURVE_S1.);
#415 = LINE('',#416,#417);
#416 = CARTESIAN_POINT('',(-5.360843918244,-2.2,-1.25));
#417 = VECTOR('',#418,1.);
#418 = DIRECTION('',(-1.,-0.,6.153480596427E-16));
#419 = PCURVE('',#232,#420);
#420 = DEFINITIONAL_REPRESENTATION('',(#421),#424);
#421 = B_SPLINE_CURVE_WITH_KNOTS('',1,(#422,#423),.UNSPECIFIED.,.F.,.F.,
  (2,2),(-6.082531754731,-4.639156081756),.PIECEWISE_BEZIER_KNOTS.);
#422 = CARTESIAN_POINT('',(8.75,10.721687836487));
#423 = CARTESIAN_POINT('',(8.75,9.278312163513));
#424 = ( GEOMETRIC_REPRESENTATION_CONTEXT(2) 
PARAMETRIC_REPRESENTATION_CONTEXT() REPRESENTATION_CONTEXT('2D SPACE',''
  ) );
#425 = PCURVE('',#426,#431);
#426 = PLANE('',#427);
#427 = AXIS2_PLACEMENT_3D('',#428,#429,#430);
#428 = CARTESIAN_POINT('',(-0.721687836487,-2.3,-1.25));
#429 = DIRECTION('',(-6.153480596427E-16,-0.,-1.));
#430 = DIRECTION('',(1.,0.,-6.153480596427E-16));
#431 = DEFINITIONAL_REPRESENTATION('',(#432),#435);
#432 = B_SPLINE_CURVE_WITH_KNOTS('',1,(#433,#434),.UNSPECIFIED.,.F.,.F.,
  (2,2),(-6.082531754731,-4.639156081756),.PIECEWISE_BEZIER_KNOTS.);
#433 = CARTESIAN_POINT('',(1.443375672974,-0.1));
#434 = CARTESIAN_POINT('',(0.,-0.1));
#435 = ( GEOMETRIC_REPRESENTATION_CONTEXT(2) 
PARAMETRIC_REPRESENTATION_CONTEXT() REPRESENTATION_CONTEXT('2D SPACE',''
  ) );
#436 = ORIENTED_EDGE('',*,*,#437,.F.);
#437 = EDGE_CURVE('',#308,#412,#438,.T.);
#438 = SURFACE_CURVE('',#439,(#443,#449),.PCURVE_S1.);
#439 = LINE('',#440,#441);
#440 = CARTESIAN_POINT('',(-2.512953713852,-2.2,-6.852563509461));
#441 = VECTOR('',#442,1.);
#442 = DIRECTION('',(-0.5,0.,-0.866025403784));
#443 = PCURVE('',#232,#444);
#444 = DEFINITIONAL_REPRESENTATION('',(#445),#448);
#445 = B_SPLINE_CURVE_WITH_KNOTS('',1,(#446,#447),.UNSPECIFIED.,.F.,.F.,
  (2,2),(-7.912658773653,-6.469283100679),.PIECEWISE_BEZIER_KNOTS.);
#446 = CARTESIAN_POINT('',(10.,11.443375672974));
#447 = CARTESIAN_POINT('',(8.75,10.721687836487));
#448 = ( GEOMETRIC_REPRESENTATION_CONTEXT(2) 
PARAMETRIC_REPRESENTATION_CONTEXT() REPRESENTATION_CONTEXT('2D SPACE',''
  ) );
#449 = PCURVE('',#450,#455);
#450 = PLANE('',#451);
#451 = AXIS2_PLACEMENT_3D('',#452,#453,#454);
#452 = CARTESIAN_POINT('',(0.721687836487,-2.3,-1.25));
#453 = DIRECTION('',(0.866025403784,0.,-0.5));
#454 = DIRECTION('',(0.5,0.,0.866025403784));
#455 = DEFINITIONAL_REPRESENTATION('',(#456),#459);
#456 = B_SPLINE_CURVE_WITH_KNOTS('',1,(#457,#458),.UNSPECIFIED.,.F.,.F.,
  (2,2),(-7.912658773653,-6.469283100679),.PIECEWISE_BEZIER_KNOTS.);
#457 = CARTESIAN_POINT('',(1.443375672974,-0.1));
#458 = CARTESIAN_POINT('',(0.,-0.1));
#459 = ( GEOMETRIC_REPRESENTATION_CONTEXT(2) 
PARAMETRIC_REPRESENTATION_CONTEXT() REPRESENTATION_CONTEXT('2D SPACE',''
  ) );
#460 = ADVANCED_FACE('',(#461,#464),#264,.T.);
#461 = FACE_BOUND('',#462,.T.);
#462 = EDGE_LOOP('',(#463));
#463 = ORIENTED_EDGE('',*,*,#247,.T.);
#464 = FACE_BOUND('',#465,.T.);
#465 = EDGE_LOOP('',(#466));
#466 = ORIENTED_EDGE('',*,*,#467,.F.);
#467 = EDGE_CURVE('',#468,#468,#470,.T.);
#468 = VERTEX_POINT('',#469);
#469 = CARTESIAN_POINT('',(-3.918869757272E-16,0.,1.6));
#470 = SURFACE_CURVE('',#471,(#476,#483),.PCURVE_S1.);
#471 = CIRCLE('',#472,1.6);
#472 = AXIS2_PLACEMENT_3D('',#473,#474,#475);
#473 = CARTESIAN_POINT('',(0.,0.,0.));
#474 = DIRECTION('',(0.,1.,0.));
#475 = DIRECTION('',(0.,-0.,1.));
#476 = PCURVE('',#264,#477);
#477 = DEFINITIONAL_REPRESENTATION('',(#478),#482);
#478 = CIRCLE('',#479,1.6);
#479 = AXIS2_PLACEMENT_2D('',#480,#481);
#480 = CARTESIAN_POINT('',(0.,0.));
#481 = DIRECTION('',(1.,0.));
#482 = ( GEOMETRIC_REPRESENTATION_CONTEXT(2) 
PARAMETRIC_REPRESENTATION_CONTEXT() REPRESENTATION_CONTEXT('2D SPACE',''
  ) );
#483 = PCURVE('',#484,#489);
#484 = CYLINDRICAL_SURFACE('',#485,1.6);
#485 = AXIS2_PLACEMENT_3D('',#486,#487,#488);
#486 = CARTESIAN_POINT('',(0.,0.,0.));
#487 = DIRECTION('',(0.,1.,0.));
#488 = DIRECTION('',(0.,-0.,1.));
#489 = DEFINITIONAL_REPRESENTATION('',(#490),#494);
#490 = LINE('',#491,#492);
#491 = CARTESIAN_POINT('',(0.,0.));
#492 = VECTOR('',#493,1.);
#493 = DIRECTION('',(1.,0.));
#494 = ( GEOMETRIC_REPRESENTATION_CONTEXT(2) 
PARAMETRIC_REPRESENTATION_CONTEXT() REPRESENTATION_CONTEXT('2D SPACE',''
  ) );
#495 = ADVANCED_FACE('',(#496),#322,.F.);
#496 = FACE_BOUND('',#497,.F.);
#497 = EDGE_LOOP('',(#498,#499,#522,#550));
#498 = ORIENTED_EDGE('',*,*,#305,.T.);
#499 = ORIENTED_EDGE('',*,*,#500,.T.);
#500 = EDGE_CURVE('',#308,#501,#503,.T.);
#501 = VERTEX_POINT('',#502);
#502 = CARTESIAN_POINT('',(1.443375672974,-0.9,0.));
#503 = SURFACE_CURVE('',#504,(#508,#515),.PCURVE_S1.);
#504 = LINE('',#505,#506);
#505 = CARTESIAN_POINT('',(1.443375672974,-2.3,0.));
#506 = VECTOR('',#507,1.);
#507 = DIRECTION('',(-0.,1.,-0.));
#508 = PCURVE('',#322,#509);
#509 = DEFINITIONAL_REPRESENTATION('',(#510),#514);
#510 = LINE('',#511,#512);
#511 = CARTESIAN_POINT('',(0.,0.));
#512 = VECTOR('',#513,1.);
#513 = DIRECTION('',(0.,-1.));
#514 = ( GEOMETRIC_REPRESENTATION_CONTEXT(2) 
PARAMETRIC_REPRESENTATION_CONTEXT() REPRESENTATION_CONTEXT('2D SPACE',''
  ) );
#515 = PCURVE('',#450,#516);
#516 = DEFINITIONAL_REPRESENTATION('',(#517),#521);
#517 = LINE('',#518,#519);
#518 = CARTESIAN_POINT('',(1.443375672974,0.));
#519 = VECTOR('',#520,1.);
#520 = DIRECTION('',(0.,-1.));
#521 = ( GEOMETRIC_REPRESENTATION_CONTEXT(2) 
PARAMETRIC_REPRESENTATION_CONTEXT() REPRESENTATION_CONTEXT('2D SPACE',''
  ) );
#522 = ORIENTED_EDGE('',*,*,#523,.T.);
#523 = EDGE_CURVE('',#501,#524,#526,.T.);
#524 = VERTEX_POINT('',#525);
#525 = CARTESIAN_POINT('',(0.721687836487,-0.9,1.25));
#526 = SURFACE_CURVE('',#527,(#531,#538),.PCURVE_S1.);
#527 = LINE('',#528,#529);
#528 = CARTESIAN_POINT('',(1.443375672974,-0.9,0.));
#529 = VECTOR('',#530,1.);
#530 = DIRECTION('',(-0.5,0.,0.866025403784));
#531 = PCURVE('',#322,#532);
#532 = DEFINITIONAL_REPRESENTATION('',(#533),#537);
#533 = LINE('',#534,#535);
#534 = CARTESIAN_POINT('',(0.,-1.4));
#535 = VECTOR('',#536,1.);
#536 = DIRECTION('',(1.,0.));
#537 = ( GEOMETRIC_REPRESENTATION_CONTEXT(2) 
PARAMETRIC_REPRESENTATION_CONTEXT() REPRESENTATION_CONTEXT('2D SPACE',''
  ) );
#538 = PCURVE('',#539,#544);
#539 = PLANE('',#540);
#540 = AXIS2_PLACEMENT_3D('',#541,#542,#543);
#541 = CARTESIAN_POINT('',(-1.025580099405E-16,-0.9,-6.491070009073E-17)
  );
#542 = DIRECTION('',(-0.,-1.,-0.));
#543 = DIRECTION('',(0.,0.,-1.));
#544 = DEFINITIONAL_REPRESENTATION('',(#545),#549);
#545 = LINE('',#546,#547);
#546 = CARTESIAN_POINT('',(-6.491070009073E-17,1.443375672974));
#547 = VECTOR('',#548,1.);
#548 = DIRECTION('',(-0.866025403784,-0.5));
#549 = ( GEOMETRIC_REPRESENTATION_CONTEXT(2) 
PARAMETRIC_REPRESENTATION_CONTEXT() REPRESENTATION_CONTEXT('2D SPACE',''
  ) );
#550 = ORIENTED_EDGE('',*,*,#551,.F.);
#551 = EDGE_CURVE('',#306,#524,#552,.T.);
#552 = SURFACE_CURVE('',#553,(#557,#564),.PCURVE_S1.);
#553 = LINE('',#554,#555);
#554 = CARTESIAN_POINT('',(0.721687836487,-2.3,1.25));
#555 = VECTOR('',#556,1.);
#556 = DIRECTION('',(-0.,1.,-0.));
#557 = PCURVE('',#322,#558);
#558 = DEFINITIONAL_REPRESENTATION('',(#559),#563);
#559 = LINE('',#560,#561);
#560 = CARTESIAN_POINT('',(1.443375672974,0.));
#561 = VECTOR('',#562,1.);
#562 = DIRECTION('',(0.,-1.));
#563 = ( GEOMETRIC_REPRESENTATION_CONTEXT(2) 
PARAMETRIC_REPRESENTATION_CONTEXT() REPRESENTATION_CONTEXT('2D SPACE',''
  ) );
#564 = PCURVE('',#348,#565);
#565 = DEFINITIONAL_REPRESENTATION('',(#566),#570);
#566 = LINE('',#567,#568);
#567 = CARTESIAN_POINT('',(0.,0.));
#568 = VECTOR('',#569,1.);
#569 = DIRECTION('',(0.,-1.));
#570 = ( GEOMETRIC_REPRESENTATION_CONTEXT(2) 
PARAMETRIC_REPRESENTATION_CONTEXT() REPRESENTATION_CONTEXT('2D SPACE',''
  ) );
#571 = ADVANCED_FACE('',(#572),#450,.F.);
#572 = FACE_BOUND('',#573,.F.);
#573 = EDGE_LOOP('',(#574,#575,#598,#619));
#574 = ORIENTED_EDGE('',*,*,#437,.T.);
#575 = ORIENTED_EDGE('',*,*,#576,.T.);
#576 = EDGE_CURVE('',#412,#577,#579,.T.);
#577 = VERTEX_POINT('',#578);
#578 = CARTESIAN_POINT('',(0.721687836487,-0.9,-1.25));
#579 = SURFACE_CURVE('',#580,(#584,#591),.PCURVE_S1.);
#580 = LINE('',#581,#582);
#581 = CARTESIAN_POINT('',(0.721687836487,-2.3,-1.25));
#582 = VECTOR('',#583,1.);
#583 = DIRECTION('',(-0.,1.,-0.));
#584 = PCURVE('',#450,#585);
#585 = DEFINITIONAL_REPRESENTATION('',(#586),#590);
#586 = LINE('',#587,#588);
#587 = CARTESIAN_POINT('',(0.,0.));
#588 = VECTOR('',#589,1.);
#589 = DIRECTION('',(0.,-1.));
#590 = ( GEOMETRIC_REPRESENTATION_CONTEXT(2) 
PARAMETRIC_REPRESENTATION_CONTEXT() REPRESENTATION_CONTEXT('2D SPACE',''
  ) );
#591 = PCURVE('',#426,#592);
#592 = DEFINITIONAL_REPRESENTATION('',(#593),#597);
#593 = LINE('',#594,#595);
#594 = CARTESIAN_POINT('',(1.443375672974,0.));
#595 = VECTOR('',#596,1.);
#596 = DIRECTION('',(0.,-1.));
#597 = ( GEOMETRIC_REPRESENTATION_CONTEXT(2) 
PARAMETRIC_REPRESENTATION_CONTEXT() REPRESENTATION_CONTEXT('2D SPACE',''
  ) );
#598 = ORIENTED_EDGE('',*,*,#599,.T.);
#599 = EDGE_CURVE('',#577,#501,#600,.T.);
#600 = SURFACE_CURVE('',#601,(#605,#612),.PCURVE_S1.);
#601 = LINE('',#602,#603);
#602 = CARTESIAN_POINT('',(0.721687836487,-0.9,-1.25));
#603 = VECTOR('',#604,1.);
#604 = DIRECTION('',(0.5,0.,0.866025403784));
#605 = PCURVE('',#450,#606);
#606 = DEFINITIONAL_REPRESENTATION('',(#607),#611);
#607 = LINE('',#608,#609);
#608 = CARTESIAN_POINT('',(0.,-1.4));
#609 = VECTOR('',#610,1.);
#610 = DIRECTION('',(1.,0.));
#611 = ( GEOMETRIC_REPRESENTATION_CONTEXT(2) 
PARAMETRIC_REPRESENTATION_CONTEXT() REPRESENTATION_CONTEXT('2D SPACE',''
  ) );
#612 = PCURVE('',#539,#613);
#613 = DEFINITIONAL_REPRESENTATION('',(#614),#618);
#614 = LINE('',#615,#616);
#615 = CARTESIAN_POINT('',(1.25,0.721687836487));
#616 = VECTOR('',#617,1.);
#617 = DIRECTION('',(-0.866025403784,0.5));
#618 = ( GEOMETRIC_REPRESENTATION_CONTEXT(2) 
PARAMETRIC_REPRESENTATION_CONTEXT() REPRESENTATION_CONTEXT('2D SPACE',''
  ) );
#619 = ORIENTED_EDGE('',*,*,#500,.F.);
#620 = ADVANCED_FACE('',(#621),#426,.F.);
#621 = FACE_BOUND('',#622,.F.);
#622 = EDGE_LOOP('',(#623,#624,#647,#668));
#623 = ORIENTED_EDGE('',*,*,#411,.T.);
#624 = ORIENTED_EDGE('',*,*,#625,.T.);
#625 = EDGE_CURVE('',#386,#626,#628,.T.);
#626 = VERTEX_POINT('',#627);
#627 = CARTESIAN_POINT('',(-0.721687836487,-0.9,-1.25));
#628 = SURFACE_CURVE('',#629,(#633,#640),.PCURVE_S1.);
#629 = LINE('',#630,#631);
#630 = CARTESIAN_POINT('',(-0.721687836487,-2.3,-1.25));
#631 = VECTOR('',#632,1.);
#632 = DIRECTION('',(-0.,1.,-0.));
#633 = PCURVE('',#426,#634);
#634 = DEFINITIONAL_REPRESENTATION('',(#635),#639);
#635 = LINE('',#636,#637);
#636 = CARTESIAN_POINT('',(0.,0.));
#637 = VECTOR('',#638,1.);
#638 = DIRECTION('',(0.,-1.));
#639 = ( GEOMETRIC_REPRESENTATION_CONTEXT(2) 
PARAMETRIC_REPRESENTATION_CONTEXT() REPRESENTATION_CONTEXT('2D SPACE',''
  ) );
#640 = PCURVE('',#400,#641);
#641 = DEFINITIONAL_REPRESENTATION('',(#642),#646);
#642 = LINE('',#643,#644);
#643 = CARTESIAN_POINT('',(1.443375672974,0.));
#644 = VECTOR('',#645,1.);
#645 = DIRECTION('',(0.,-1.));
#646 = ( GEOMETRIC_REPRESENTATION_CONTEXT(2) 
PARAMETRIC_REPRESENTATION_CONTEXT() REPRESENTATION_CONTEXT('2D SPACE',''
  ) );
#647 = ORIENTED_EDGE('',*,*,#648,.T.);
#648 = EDGE_CURVE('',#626,#577,#649,.T.);
#649 = SURFACE_CURVE('',#650,(#654,#661),.PCURVE_S1.);
#650 = LINE('',#651,#652);
#651 = CARTESIAN_POINT('',(-0.721687836487,-0.9,-1.25));
#652 = VECTOR('',#653,1.);
#653 = DIRECTION('',(1.,0.,-6.153480596427E-16));
#654 = PCURVE('',#426,#655);
#655 = DEFINITIONAL_REPRESENTATION('',(#656),#660);
#656 = LINE('',#657,#658);
#657 = CARTESIAN_POINT('',(0.,-1.4));
#658 = VECTOR('',#659,1.);
#659 = DIRECTION('',(1.,0.));
#660 = ( GEOMETRIC_REPRESENTATION_CONTEXT(2) 
PARAMETRIC_REPRESENTATION_CONTEXT() REPRESENTATION_CONTEXT('2D SPACE',''
  ) );
#661 = PCURVE('',#539,#662);
#662 = DEFINITIONAL_REPRESENTATION('',(#663),#667);
#663 = LINE('',#664,#665);
#664 = CARTESIAN_POINT('',(1.25,-0.721687836487));
#665 = VECTOR('',#666,1.);
#666 = DIRECTION('',(6.153480596427E-16,1.));
#667 = ( GEOMETRIC_REPRESENTATION_CONTEXT(2) 
PARAMETRIC_REPRESENTATION_CONTEXT() REPRESENTATION_CONTEXT('2D SPACE',''
  ) );
#668 = ORIENTED_EDGE('',*,*,#576,.F.);
#669 = ADVANCED_FACE('',(#670),#400,.F.);
#670 = FACE_BOUND('',#671,.F.);
#671 = EDGE_LOOP('',(#672,#673,#696,#717));
#672 = ORIENTED_EDGE('',*,*,#385,.T.);
#673 = ORIENTED_EDGE('',*,*,#674,.T.);
#674 = EDGE_CURVE('',#360,#675,#677,.T.);
#675 = VERTEX_POINT('',#676);
#676 = CARTESIAN_POINT('',(-1.443375672974,-0.9,1.767625397875E-16));
#677 = SURFACE_CURVE('',#678,(#682,#689),.PCURVE_S1.);
#678 = LINE('',#679,#680);
#679 = CARTESIAN_POINT('',(-1.443375672974,-2.3,1.767625397875E-16));
#680 = VECTOR('',#681,1.);
#681 = DIRECTION('',(-0.,1.,-0.));
#682 = PCURVE('',#400,#683);
#683 = DEFINITIONAL_REPRESENTATION('',(#684),#688);
#684 = LINE('',#685,#686);
#685 = CARTESIAN_POINT('',(0.,0.));
#686 = VECTOR('',#687,1.);
#687 = DIRECTION('',(0.,-1.));
#688 = ( GEOMETRIC_REPRESENTATION_CONTEXT(2) 
PARAMETRIC_REPRESENTATION_CONTEXT() REPRESENTATION_CONTEXT('2D SPACE',''
  ) );
#689 = PCURVE('',#374,#690);
#690 = DEFINITIONAL_REPRESENTATION('',(#691),#695);
#691 = LINE('',#692,#693);
#692 = CARTESIAN_POINT('',(1.443375672974,0.));
#693 = VECTOR('',#694,1.);
#694 = DIRECTION('',(0.,-1.));
#695 = ( GEOMETRIC_REPRESENTATION_CONTEXT(2) 
PARAMETRIC_REPRESENTATION_CONTEXT() REPRESENTATION_CONTEXT('2D SPACE',''
  ) );
#696 = ORIENTED_EDGE('',*,*,#697,.T.);
#697 = EDGE_CURVE('',#675,#626,#698,.T.);
#698 = SURFACE_CURVE('',#699,(#703,#710),.PCURVE_S1.);
#699 = LINE('',#700,#701);
#700 = CARTESIAN_POINT('',(-1.443375672974,-0.9,1.767625397875E-16));
#701 = VECTOR('',#702,1.);
#702 = DIRECTION('',(0.5,0.,-0.866025403784));
#703 = PCURVE('',#400,#704);
#704 = DEFINITIONAL_REPRESENTATION('',(#705),#709);
#705 = LINE('',#706,#707);
#706 = CARTESIAN_POINT('',(0.,-1.4));
#707 = VECTOR('',#708,1.);
#708 = DIRECTION('',(1.,0.));
#709 = ( GEOMETRIC_REPRESENTATION_CONTEXT(2) 
PARAMETRIC_REPRESENTATION_CONTEXT() REPRESENTATION_CONTEXT('2D SPACE',''
  ) );
#710 = PCURVE('',#539,#711);
#711 = DEFINITIONAL_REPRESENTATION('',(#712),#716);
#712 = LINE('',#713,#714);
#713 = CARTESIAN_POINT('',(-2.416732398782E-16,-1.443375672974));
#714 = VECTOR('',#715,1.);
#715 = DIRECTION('',(0.866025403784,0.5));
#716 = ( GEOMETRIC_REPRESENTATION_CONTEXT(2) 
PARAMETRIC_REPRESENTATION_CONTEXT() REPRESENTATION_CONTEXT('2D SPACE',''
  ) );
#717 = ORIENTED_EDGE('',*,*,#625,.F.);
#718 = ADVANCED_FACE('',(#719),#374,.F.);
#719 = FACE_BOUND('',#720,.F.);
#720 = EDGE_LOOP('',(#721,#722,#745,#766));
#721 = ORIENTED_EDGE('',*,*,#359,.T.);
#722 = ORIENTED_EDGE('',*,*,#723,.T.);
#723 = EDGE_CURVE('',#334,#724,#726,.T.);
#724 = VERTEX_POINT('',#725);
#725 = CARTESIAN_POINT('',(-0.721687836487,-0.9,1.25));
#726 = SURFACE_CURVE('',#727,(#731,#738),.PCURVE_S1.);
#727 = LINE('',#728,#729);
#728 = CARTESIAN_POINT('',(-0.721687836487,-2.3,1.25));
#729 = VECTOR('',#730,1.);
#730 = DIRECTION('',(-0.,1.,-0.));
#731 = PCURVE('',#374,#732);
#732 = DEFINITIONAL_REPRESENTATION('',(#733),#737);
#733 = LINE('',#734,#735);
#734 = CARTESIAN_POINT('',(0.,0.));
#735 = VECTOR('',#736,1.);
#736 = DIRECTION('',(0.,-1.));
#737 = ( GEOMETRIC_REPRESENTATION_CONTEXT(2) 
PARAMETRIC_REPRESENTATION_CONTEXT() REPRESENTATION_CONTEXT('2D SPACE',''
  ) );
#738 = PCURVE('',#348,#739);
#739 = DEFINITIONAL_REPRESENTATION('',(#740),#744);
#740 = LINE('',#741,#742);
#741 = CARTESIAN_POINT('',(1.443375672974,0.));
#742 = VECTOR('',#743,1.);
#743 = DIRECTION('',(0.,-1.));
#744 = ( GEOMETRIC_REPRESENTATION_CONTEXT(2) 
PARAMETRIC_REPRESENTATION_CONTEXT() REPRESENTATION_CONTEXT('2D SPACE',''
  ) );
#745 = ORIENTED_EDGE('',*,*,#746,.T.);
#746 = EDGE_CURVE('',#724,#675,#747,.T.);
#747 = SURFACE_CURVE('',#748,(#752,#759),.PCURVE_S1.);
#748 = LINE('',#749,#750);
#749 = CARTESIAN_POINT('',(-0.721687836487,-0.9,1.25));
#750 = VECTOR('',#751,1.);
#751 = DIRECTION('',(-0.5,-0.,-0.866025403784));
#752 = PCURVE('',#374,#753);
#753 = DEFINITIONAL_REPRESENTATION('',(#754),#758);
#754 = LINE('',#755,#756);
#755 = CARTESIAN_POINT('',(0.,-1.4));
#756 = VECTOR('',#757,1.);
#757 = DIRECTION('',(1.,0.));
#758 = ( GEOMETRIC_REPRESENTATION_CONTEXT(2) 
PARAMETRIC_REPRESENTATION_CONTEXT() REPRESENTATION_CONTEXT('2D SPACE',''
  ) );
#759 = PCURVE('',#539,#760);
#760 = DEFINITIONAL_REPRESENTATION('',(#761),#765);
#761 = LINE('',#762,#763);
#762 = CARTESIAN_POINT('',(-1.25,-0.721687836487));
#763 = VECTOR('',#764,1.);
#764 = DIRECTION('',(0.866025403784,-0.5));
#765 = ( GEOMETRIC_REPRESENTATION_CONTEXT(2) 
PARAMETRIC_REPRESENTATION_CONTEXT() REPRESENTATION_CONTEXT('2D SPACE',''
  ) );
#766 = ORIENTED_EDGE('',*,*,#674,.F.);
#767 = ADVANCED_FACE('',(#768),#348,.F.);
#768 = FACE_BOUND('',#769,.F.);
#769 = EDGE_LOOP('',(#770,#771,#772,#793));
#770 = ORIENTED_EDGE('',*,*,#333,.T.);
#771 = ORIENTED_EDGE('',*,*,#551,.T.);
#772 = ORIENTED_EDGE('',*,*,#773,.T.);
#773 = EDGE_CURVE('',#524,#724,#774,.T.);
#774 = SURFACE_CURVE('',#775,(#779,#786),.PCURVE_S1.);
#775 = LINE('',#776,#777);
#776 = CARTESIAN_POINT('',(0.721687836487,-0.9,1.25));
#777 = VECTOR('',#778,1.);
#778 = DIRECTION('',(-1.,0.,1.538370149107E-16));
#779 = PCURVE('',#348,#780);
#780 = DEFINITIONAL_REPRESENTATION('',(#781),#785);
#781 = LINE('',#782,#783);
#782 = CARTESIAN_POINT('',(0.,-1.4));
#783 = VECTOR('',#784,1.);
#784 = DIRECTION('',(1.,0.));
#785 = ( GEOMETRIC_REPRESENTATION_CONTEXT(2) 
PARAMETRIC_REPRESENTATION_CONTEXT() REPRESENTATION_CONTEXT('2D SPACE',''
  ) );
#786 = PCURVE('',#539,#787);
#787 = DEFINITIONAL_REPRESENTATION('',(#788),#792);
#788 = LINE('',#789,#790);
#789 = CARTESIAN_POINT('',(-1.25,0.721687836487));
#790 = VECTOR('',#791,1.);
#791 = DIRECTION('',(-1.538370149107E-16,-1.));
#792 = ( GEOMETRIC_REPRESENTATION_CONTEXT(2) 
PARAMETRIC_REPRESENTATION_CONTEXT() REPRESENTATION_CONTEXT('2D SPACE',''
  ) );
#793 = ORIENTED_EDGE('',*,*,#723,.F.);
#794 = ADVANCED_FACE('',(#795),#484,.T.);
#795 = FACE_BOUND('',#796,.T.);
#796 = EDGE_LOOP('',(#797,#826,#847,#848));
#797 = ORIENTED_EDGE('',*,*,#798,.F.);
#798 = EDGE_CURVE('',#799,#799,#801,.T.);
#799 = VERTEX_POINT('',#800);
#800 = CARTESIAN_POINT('',(-3.918869757272E-16,16.,1.6));
#801 = SURFACE_CURVE('',#802,(#807,#814),.PCURVE_S1.);
#802 = CIRCLE('',#803,1.6);
#803 = AXIS2_PLACEMENT_3D('',#804,#805,#806);
#804 = CARTESIAN_POINT('',(0.,16.,0.));
#805 = DIRECTION('',(0.,1.,0.));
#806 = DIRECTION('',(0.,-0.,1.));
#807 = PCURVE('',#484,#808);
#808 = DEFINITIONAL_REPRESENTATION('',(#809),#813);
#809 = LINE('',#810,#811);
#810 = CARTESIAN_POINT('',(0.,16.));
#811 = VECTOR('',#812,1.);
#812 = DIRECTION('',(1.,0.));
#813 = ( GEOMETRIC_REPRESENTATION_CONTEXT(2) 
PARAMETRIC_REPRESENTATION_CONTEXT() REPRESENTATION_CONTEXT('2D SPACE',''
  ) );
#814 = PCURVE('',#815,#820);
#815 = PLANE('',#816);
#816 = AXIS2_PLACEMENT_3D('',#817,#818,#819);
#817 = CARTESIAN_POINT('',(0.,16.,0.));
#818 = DIRECTION('',(0.,1.,0.));
#819 = DIRECTION('',(0.,-0.,1.));
#820 = DEFINITIONAL_REPRESENTATION('',(#821),#825);
#821 = CIRCLE('',#822,1.6);
#822 = AXIS2_PLACEMENT_2D('',#823,#824);
#823 = CARTESIAN_POINT('',(0.,0.));
#824 = DIRECTION('',(1.,0.));
#825 = ( GEOMETRIC_REPRESENTATION_CONTEXT(2) 
PARAMETRIC_REPRESENTATION_CONTEXT() REPRESENTATION_CONTEXT('2D SPACE',''
  ) );
#826 = ORIENTED_EDGE('',*,*,#827,.F.);
#827 = EDGE_CURVE('',#468,#799,#828,.T.);
#828 = SEAM_CURVE('',#829,(#833,#840),.PCURVE_S1.);
#829 = LINE('',#830,#831);
#830 = CARTESIAN_POINT('',(-3.918869757272E-16,0.,1.6));
#831 = VECTOR('',#832,1.);
#832 = DIRECTION('',(0.,1.,0.));
#833 = PCURVE('',#484,#834);
#834 = DEFINITIONAL_REPRESENTATION('',(#835),#839);
#835 = LINE('',#836,#837);
#836 = CARTESIAN_POINT('',(6.28318530718,-0.));
#837 = VECTOR('',#838,1.);
#838 = DIRECTION('',(0.,1.));
#839 = ( GEOMETRIC_REPRESENTATION_CONTEXT(2) 
PARAMETRIC_REPRESENTATION_CONTEXT() REPRESENTATION_CONTEXT('2D SPACE',''
  ) );
#840 = PCURVE('',#484,#841);
#841 = DEFINITIONAL_REPRESENTATION('',(#842),#846);
#842 = LINE('',#843,#844);
#843 = CARTESIAN_POINT('',(0.,-0.));
#844 = VECTOR('',#845,1.);
#845 = DIRECTION('',(0.,1.));
#846 = ( GEOMETRIC_REPRESENTATION_CONTEXT(2) 
PARAMETRIC_REPRESENTATION_CONTEXT() REPRESENTATION_CONTEXT('2D SPACE',''
  ) );
#847 = ORIENTED_EDGE('',*,*,#467,.T.);
#848 = ORIENTED_EDGE('',*,*,#827,.T.);
#849 = ADVANCED_FACE('',(#850),#539,.T.);
#850 = FACE_BOUND('',#851,.T.);
#851 = EDGE_LOOP('',(#852,#853,#854,#855,#856,#857));
#852 = ORIENTED_EDGE('',*,*,#523,.T.);
#853 = ORIENTED_EDGE('',*,*,#773,.T.);
#854 = ORIENTED_EDGE('',*,*,#746,.T.);
#855 = ORIENTED_EDGE('',*,*,#697,.T.);
#856 = ORIENTED_EDGE('',*,*,#648,.T.);
#857 = ORIENTED_EDGE('',*,*,#599,.T.);
#858 = ADVANCED_FACE('',(#859),#815,.T.);
#859 = FACE_BOUND('',#860,.T.);
#860 = EDGE_LOOP('',(#861));
#861 = ORIENTED_EDGE('',*,*,#798,.T.);
#862 = ( GEOMETRIC_REPRESENTATION_CONTEXT(3) 
GLOBAL_UNCERTAINTY_ASSIGNED_CONTEXT((#866)) GLOBAL_UNIT_ASSIGNED_CONTEXT
((#863,#864,#865)) REPRESENTATION_CONTEXT('Context #1',
  '3D Context with UNIT and UNCERTAINTY') );
#863 = ( LENGTH_UNIT() NAMED_UNIT(*) SI_UNIT(.MILLI.,.METRE.) );
#864 = ( NAMED_UNIT(*) PLANE_ANGLE_UNIT() SI_UNIT($,.RADIAN.) );
#865 = ( NAMED_UNIT(*) SI_UNIT($,.STERADIAN.) SOLID_ANGLE_UNIT() );
#866 = UNCERTAINTY_MEASURE_WITH_UNIT(LENGTH_MEASURE(1.E-07),#863,
  'distance_accuracy_value','confusion accuracy');
#867 = PRODUCT_RELATED_PRODUCT_CATEGORY('part',$,(#7));
ENDSEC;
END-ISO-10303-21;
