ISO-10303-21;
HEADER;
FILE_DESCRIPTION(('Open CASCADE Model'),'2;1');
FILE_NAME('Open CASCADE Shape Model','2026-09-15T23:05:40',('Author'),(
    'Open CASCADE'),'Open CASCADE STEP processor 7.9','Open CASCADE 7.9'
  ,'Unknown');
FILE_SCHEMA(('AUTOMOTIVE_DESIGN { 1 0 10303 214 1 1 1 1 }'));
ENDSEC;
DATA;
#1 = APPLICATION_PROTOCOL_DEFINITION('international standard',
  'automotive_design',2000,#2);
#2 = APPLICATION_CONTEXT(
  'core data for automotive mechanical design processes');
#3 = SHAPE_DEFINITION_REPRESENTATION(#4,#10);
#4 = PRODUCT_DEFINITION_SHAPE('','',#5);
#5 = PRODUCT_DEFINITION('design','',#6,#9);
#6 = PRODUCT_DEFINITION_FORMATION('','',#7);
#7 = PRODUCT('Open CASCADE STEP translator 7.9 1',
  'Open CASCADE STEP translator 7.9 1','',(#8));
#8 = PRODUCT_CONTEXT('',#2,'mechanical');
#9 = PRODUCT_DEFINITION_CONTEXT('part definition',#2,'design');
#10 = ADVANCED_BREP_SHAPE_REPRESENTATION('',(#11,#15),#874);
#11 = AXIS2_PLACEMENT_3D('',#12,#13,#14);
#12 = CARTESIAN_POINT('',(0.,0.,0.));
#13 = DIRECTION('',(0.,0.,1.));
#14 = DIRECTION('',(1.,0.,-0.));
#15 = MANIFOLD_SOLID_BREP('',#16);
#16 = CLOSED_SHELL('',(#17,#243,#298,#472,#507,#583,#632,#681,#730,#779,
    #806,#861,#870));
#17 = ADVANCED_FACE('',(#18,#164),#31,.T.);
#18 = FACE_BOUND('',#19,.T.);
#19 = EDGE_LOOP('',(#20));
#20 = ORIENTED_EDGE('',*,*,#21,.F.);
#21 = EDGE_CURVE('',#22,#22,#24,.T.);
#22 = VERTEX_POINT('',#23);
#23 = CARTESIAN_POINT('',(0.,-0.3,3.8));
#24 = SURFACE_CURVE('',#25,(#30,#153),.PCURVE_S1.);
#25 = CIRCLE('',#26,3.8);
#26 = AXIS2_PLACEMENT_3D('',#27,#28,#29);
#27 = CARTESIAN_POINT('',(0.,-0.3,0.));
#28 = DIRECTION('',(-0.,1.,0.));
#29 = DIRECTION('',(0.,0.,1.));
#30 = PCURVE('',#31,#36);
#31 = SPHERICAL_SURFACE('',#32,4.381818181818);
#32 = AXIS2_PLACEMENT_3D('',#33,#34,#35);
#33 = CARTESIAN_POINT('',(0.,1.881818181818,0.));
#34 = DIRECTION('',(0.,0.,1.));
#35 = DIRECTION('',(1.,0.,-0.));
#36 = DEFINITIONAL_REPRESENTATION('',(#37),#152);
#37 = B_SPLINE_CURVE_WITH_KNOTS('',8,(#38,#39,#40,#41,#42,#43,#44,#45,
    #46,#47,#48,#49,#50,#51,#52,#53,#54,#55,#56,#57,#58,#59,#60,#61,#62,
    #63,#64,#65,#66,#67,#68,#69,#70,#71,#72,#73,#74,#75,#76,#77,#78,#79,
    #80,#81,#82,#83,#84,#85,#86,#87,#88,#89,#90,#91,#92,#93,#94,#95,#96,
    #97,#98,#99,#100,#101,#102,#103,#104,#105,#106,#107,#108,#109,#110,
    #111,#112,#113,#114,#115,#116,#117,#118,#119,#120,#121,#122,#123,
    #124,#125,#126,#127,#128,#129,#130,#131,#132,#133,#134,#135,#136,
    #137,#138,#139,#140,#141,#142,#143,#144,#145,#146,#147,#148,#149,
    #150,#151),.UNSPECIFIED.,.T.,.F.,(1,8,7,7,7,7,7,7,7,7,7,7,7,7,7,7,7,
    8,1),(-0.211962731443,0.,0.196349540849,0.576776776245,
    0.933427309428,1.602147059147,2.187276840152,2.69926539853,
    2.923260392821,3.133255699968,3.330126300419,3.699258676264,
    4.022249505128,4.587483455641,5.43533438141,5.859259844295,
    6.071222575737,6.28318530718,6.479534848029),.UNSPECIFIED.);
#38 = CARTESIAN_POINT('',(4.712388980385,1.0495915433));
#39 = CARTESIAN_POINT('',(4.755135911674,1.0495915433));
#40 = CARTESIAN_POINT('',(4.797882712998,1.0483925396));
#41 = CARTESIAN_POINT('',(4.840352785121,1.045994318257));
#42 = CARTESIAN_POINT('',(4.882267368801,1.04241279739));
#43 = CARTESIAN_POINT('',(4.923371959924,1.037678987412));
#44 = CARTESIAN_POINT('',(4.963453191094,1.031836672279));
#45 = CARTESIAN_POINT('',(5.002346179677,1.024938811776));
#46 = CARTESIAN_POINT('',(5.112755532423,1.001743880128));
#47 = CARTESIAN_POINT('',(5.180672896212,0.98269784716));
#48 = CARTESIAN_POINT('',(5.242818926204,0.960322288627));
#49 = CARTESIAN_POINT('',(5.298978557652,0.935106984641));
#50 = CARTESIAN_POINT('',(5.3495047901,0.90750518275));
#51 = CARTESIAN_POINT('',(5.394852564729,0.877891954828));
#52 = CARTESIAN_POINT('',(5.435534172217,0.846581968776));
#53 = CARTESIAN_POINT('',(5.506250878396,0.783132153055));
#54 = CARTESIAN_POINT('',(5.536792543919,0.751166511535));
#55 = CARTESIAN_POINT('',(5.564058158176,0.718150059549));
#56 = CARTESIAN_POINT('',(5.588429595171,0.684253485436));
#57 = CARTESIAN_POINT('',(5.610236687644,0.649613459455));
#58 = CARTESIAN_POINT('',(5.629756623127,0.614341082757));
#59 = CARTESIAN_POINT('',(5.647225329089,0.578528741939));
#60 = CARTESIAN_POINT('',(5.692116269294,0.474238648064));
#61 = CARTESIAN_POINT('',(5.71487343077,0.404597590958));
#62 = CARTESIAN_POINT('',(5.732411727655,0.333841474059));
#63 = CARTESIAN_POINT('',(5.745560684303,0.262301895272));
#64 = CARTESIAN_POINT('',(5.754845007638,0.190228781273));
#65 = CARTESIAN_POINT('',(5.760578558961,0.117831164611));
#66 = CARTESIAN_POINT('',(5.762900513516,4.529517419708E-02));
#67 = CARTESIAN_POINT('',(5.760777530766,-9.060866803139E-02));
#68 = CARTESIAN_POINT('',(5.757142185876,-0.153989233813));
#69 = CARTESIAN_POINT('',(5.750833979053,-0.217199856711));
#70 = CARTESIAN_POINT('',(5.741718057482,-0.280109694492));
#71 = CARTESIAN_POINT('',(5.729550489388,-0.342571393992));
#72 = CARTESIAN_POINT('',(5.713954857668,-0.404409604172));
#73 = CARTESIAN_POINT('',(5.694372336517,-0.465398428989));
#74 = CARTESIAN_POINT('',(5.648636090338,-0.577552366815));
#75 = CARTESIAN_POINT('',(5.623609838563,-0.628992527163));
#76 = CARTESIAN_POINT('',(5.594349156098,-0.679316685675));
#77 = CARTESIAN_POINT('',(5.56015153957,-0.728251683182));
#78 = CARTESIAN_POINT('',(5.520111699611,-0.775433788653));
#79 = CARTESIAN_POINT('',(5.47312241369,-0.820392024219));
#80 = CARTESIAN_POINT('',(5.417759875308,-0.862440487852));
#81 = CARTESIAN_POINT('',(5.324682151648,-0.91742706723));
#82 = CARTESIAN_POINT('',(5.294557178048,-0.933435388648));
#83 = CARTESIAN_POINT('',(5.262551241358,-0.948642643411));
#84 = CARTESIAN_POINT('',(5.228592886074,-0.962967527403));
#85 = CARTESIAN_POINT('',(5.19263860868,-0.976321568299));
#86 = CARTESIAN_POINT('',(5.154689019933,-0.988611154965));
#87 = CARTESIAN_POINT('',(5.114805754273,-0.999741802525));
#88 = CARTESIAN_POINT('',(5.034057287717,-1.018889825523));
#89 = CARTESIAN_POINT('',(4.993409047671,-1.027058235458));
#90 = CARTESIAN_POINT('',(4.95129891282,-1.03405707849));
#91 = CARTESIAN_POINT('',(4.907898867503,-1.039816956118));
#92 = CARTESIAN_POINT('',(4.863446796919,-1.044278557889));
#93 = CARTESIAN_POINT('',(4.818240099606,-1.047397871053));
#94 = CARTESIAN_POINT('',(4.772614489291,-1.049149917754));
#95 = CARTESIAN_POINT('',(4.684058139379,-1.049888302867));
#96 = CARTESIAN_POINT('',(4.641137467935,-1.049040631591));
#97 = CARTESIAN_POINT('',(4.598424248533,-1.046984471099));
#98 = CARTESIAN_POINT('',(4.556202982817,-1.043732531009));
#99 = CARTESIAN_POINT('',(4.514737014079,-1.039313116147));
#100 = CARTESIAN_POINT('',(4.47425044825,-1.033768024543));
#101 = CARTESIAN_POINT('',(4.434919379103,-1.027148992654));
#102 = CARTESIAN_POINT('',(4.325534365005,-1.005194616218));
#103 = CARTESIAN_POINT('',(4.258711016419,-0.987300400994));
#104 = CARTESIAN_POINT('',(4.197253485808,-0.966204761709));
#105 = CARTESIAN_POINT('',(4.141434230267,-0.942353394039));
#106 = CARTESIAN_POINT('',(4.090988234158,-0.916168606208));
#107 = CARTESIAN_POINT('',(4.045522993992,-0.888004916855));
#108 = CARTESIAN_POINT('',(4.004579415915,-0.858162775192));
#109 = CARTESIAN_POINT('',(3.93545304404,-0.799528319493));
#110 = CARTESIAN_POINT('',(3.906314843596,-0.771071076588));
#111 = CARTESIAN_POINT('',(3.879998045372,-0.741686312182));
#112 = CARTESIAN_POINT('',(3.856208903596,-0.711511354337));
#113 = CARTESIAN_POINT('',(3.834685571207,-0.680658682426));
#114 = CARTESIAN_POINT('',(3.815201665068,-0.649221336461));
#115 = CARTESIAN_POINT('',(3.797560653639,-0.61727764724));
#116 = CARTESIAN_POINT('',(3.753654000531,-0.528222610214));
#117 = CARTESIAN_POINT('',(3.730842978527,-0.470203885253));
#118 = CARTESIAN_POINT('',(3.712259467245,-0.411193672745));
#119 = CARTESIAN_POINT('',(3.697265992027,-0.351437804128));
#120 = CARTESIAN_POINT('',(3.685416916919,-0.291123010831));
#121 = CARTESIAN_POINT('',(3.676404545343,-0.230401640654));
#122 = CARTESIAN_POINT('',(3.670027061013,-0.169403782704));
#123 = CARTESIAN_POINT('',(3.660412651831,-1.65203555446E-02));
#124 = CARTESIAN_POINT('',(3.660339877368,7.555960907141E-02));
#125 = CARTESIAN_POINT('',(3.665616130019,0.167582086274));
#126 = CARTESIAN_POINT('',(3.676371867301,0.259186448826));
#127 = CARTESIAN_POINT('',(3.693181759358,0.349980457184));
#128 = CARTESIAN_POINT('',(3.717069427689,0.439458799224));
#129 = CARTESIAN_POINT('',(3.749926566799,0.526929344665));
#130 = CARTESIAN_POINT('',(3.817629363879,0.65314990081));
#131 = CARTESIAN_POINT('',(3.8432666266,0.694392421588));
#132 = CARTESIAN_POINT('',(3.872384476417,0.734640192131));
#133 = CARTESIAN_POINT('',(3.905488144508,0.77368765799));
#134 = CARTESIAN_POINT('',(3.943166359886,0.811281386684));
#135 = CARTESIAN_POINT('',(3.986126979971,0.847091995334));
#136 = CARTESIAN_POINT('',(4.035137353716,0.880689935677));
#137 = CARTESIAN_POINT('',(4.118522887099,0.926981517669));
#138 = CARTESIAN_POINT('',(4.147963164368,0.941727869019));
#139 = CARTESIAN_POINT('',(4.179113887651,0.955724584205));
#140 = CARTESIAN_POINT('',(4.212027231775,0.968900706794));
#141 = CARTESIAN_POINT('',(4.246729251849,0.981179969976));
#142 = CARTESIAN_POINT('',(4.283207149206,0.992482637361));
#143 = CARTESIAN_POINT('',(4.3213967513,1.002728998696));
#144 = CARTESIAN_POINT('',(4.400943659818,1.02096004233));
#145 = CARTESIAN_POINT('',(4.442301098256,1.028944647772));
#146 = CARTESIAN_POINT('',(4.485115888635,1.035724216618));
#147 = CARTESIAN_POINT('',(4.529200442584,1.041228728131));
#148 = CARTESIAN_POINT('',(4.574299213835,1.045399442619));
#149 = CARTESIAN_POINT('',(4.620097054216,1.048194301132));
#150 = CARTESIAN_POINT('',(4.666242927394,1.0495915433));
#151 = CARTESIAN_POINT('',(4.712388980385,1.0495915433));
#152 = ( GEOMETRIC_REPRESENTATION_CONTEXT(2) 
PARAMETRIC_REPRESENTATION_CONTEXT() REPRESENTATION_CONTEXT('2D SPACE',''
  ) );
#153 = PCURVE('',#154,#159);
#154 = CYLINDRICAL_SURFACE('',#155,3.8);
#155 = AXIS2_PLACEMENT_3D('',#156,#157,#158);
#156 = CARTESIAN_POINT('',(0.,-0.3,0.));
#157 = DIRECTION('',(0.,1.,0.));
#158 = DIRECTION('',(0.,-0.,1.));
#159 = DEFINITIONAL_REPRESENTATION('',(#160),#163);
#160 = B_SPLINE_CURVE_WITH_KNOTS('',1,(#161,#162),.UNSPECIFIED.,.F.,.F.,
  (2,2),(0.,6.28318530718),.PIECEWISE_BEZIER_KNOTS.);
#161 = CARTESIAN_POINT('',(0.,0.));
#162 = CARTESIAN_POINT('',(6.28318530718,0.));
#163 = ( GEOMETRIC_REPRESENTATION_CONTEXT(2) 
PARAMETRIC_REPRESENTATION_CONTEXT() REPRESENTATION_CONTEXT('2D SPACE',''
  ) );
#164 = FACE_BOUND('',#165,.T.);
#165 = EDGE_LOOP('',(#166));
#166 = ORIENTED_EDGE('',*,*,#167,.T.);
#167 = EDGE_CURVE('',#168,#168,#170,.T.);
#168 = VERTEX_POINT('',#169);
#169 = CARTESIAN_POINT('',(0.,-2.2,1.593452512343));
#170 = SURFACE_CURVE('',#171,(#176,#231),.PCURVE_S1.);
#171 = CIRCLE('',#172,1.593452512343);
#172 = AXIS2_PLACEMENT_3D('',#173,#174,#175);
#173 = CARTESIAN_POINT('',(0.,-2.2,0.));
#174 = DIRECTION('',(-0.,1.,0.));
#175 = DIRECTION('',(0.,0.,1.));
#176 = PCURVE('',#31,#177);
#177 = DEFINITIONAL_REPRESENTATION('',(#178),#230);
#178 = B_SPLINE_CURVE_WITH_KNOTS('',8,(#179,#180,#181,#182,#183,#184,
    #185,#186,#187,#188,#189,#190,#191,#192,#193,#194,#195,#196,#197,
    #198,#199,#200,#201,#202,#203,#204,#205,#206,#207,#208,#209,#210,
    #211,#212,#213,#214,#215,#216,#217,#218,#219,#220,#221,#222,#223,
    #224,#225,#226,#227,#228,#229),.UNSPECIFIED.,.T.,.F.,(1,8,7,7,7,7,7,
    7,8,1),(-0.579844737821,0.,0.785398163397,2.159844949343,
    3.190680038802,3.963806355896,5.123495831538,5.703340569359,
    6.28318530718,7.068583470577),.UNSPECIFIED.);
#179 = CARTESIAN_POINT('',(4.712388980385,0.372184233433));
#180 = CARTESIAN_POINT('',(4.750714262799,0.372184233433));
#181 = CARTESIAN_POINT('',(4.789039291649,0.367884143966));
#182 = CARTESIAN_POINT('',(4.826631362856,0.359284015935));
#183 = CARTESIAN_POINT('',(4.86275089668,0.346512365355));
#184 = CARTESIAN_POINT('',(4.896751773783,0.329828064557));
#185 = CARTESIAN_POINT('',(4.928132629842,0.309584298616));
#186 = CARTESIAN_POINT('',(4.956539586937,0.286184678036));
#187 = CARTESIAN_POINT('',(5.025788197723,0.214346209968));
#188 = CARTESIAN_POINT('',(5.059978024824,0.160290270947));
#189 = CARTESIAN_POINT('',(5.082945495928,0.100209155469));
#190 = CARTESIAN_POINT('',(5.094376589225,3.668750973372E-02));
#191 = CARTESIAN_POINT('',(5.094402408434,-2.785515536241E-02));
#192 = CARTESIAN_POINT('',(5.08291873876,-9.105474533332E-02));
#193 = CARTESIAN_POINT('',(5.059957863,-0.150392132426));
#194 = CARTESIAN_POINT('',(5.000965222624,-0.24321533436));
#195 = CARTESIAN_POINT('',(4.96963656927,-0.279455510576));
#196 = CARTESIAN_POINT('',(4.932567026809,-0.311126929915));
#197 = CARTESIAN_POINT('',(4.890295273818,-0.337231961404));
#198 = CARTESIAN_POINT('',(4.843673970969,-0.356843447243));
#199 = CARTESIAN_POINT('',(4.794155786157,-0.369254842698));
#200 = CARTESIAN_POINT('',(4.743459290985,-0.374181795217));
#201 = CARTESIAN_POINT('',(4.655569189913,-0.369863239379));
#202 = CARTESIAN_POINT('',(4.618168709485,-0.363852992909));
#203 = CARTESIAN_POINT('',(4.581731072489,-0.353721578406));
#204 = CARTESIAN_POINT('',(4.546939513009,-0.339627694583));
#205 = CARTESIAN_POINT('',(4.514373914771,-0.321845594404));
#206 = CARTESIAN_POINT('',(4.484474447968,-0.300729739165));
#207 = CARTESIAN_POINT('',(4.457548975541,-0.27667524548));
#208 = CARTESIAN_POINT('',(4.39821132357,-0.210238102539));
#209 = CARTESIAN_POINT('',(4.369786648455,-0.164704958687));
#210 = CARTESIAN_POINT('',(4.349267568855,-0.114911532788));
#211 = CARTESIAN_POINT('',(4.336891443662,-6.238243029945E-02));
#212 = CARTESIAN_POINT('',(4.332655552041,-8.589395608272E-03));
#213 = CARTESIAN_POINT('',(4.336589246492,4.503016386552E-02));
#214 = CARTESIAN_POINT('',(4.348689364008,9.699868850174E-02));
#215 = CARTESIAN_POINT('',(4.378760437936,0.170260915946));
#216 = CARTESIAN_POINT('',(4.390771036944,0.193899895017));
#217 = CARTESIAN_POINT('',(4.404740536655,0.216572581791));
#218 = CARTESIAN_POINT('',(4.420628647293,0.238094562389));
#219 = CARTESIAN_POINT('',(4.438374130952,0.25828255422));
#220 = CARTESIAN_POINT('',(4.457887269745,0.276957651184));
#221 = CARTESIAN_POINT('',(4.47904346743,0.293950797797));
#222 = CARTESIAN_POINT('',(4.524312501609,0.324270186663));
#223 = CARTESIAN_POINT('',(4.548425400589,0.337596329137));
#224 = CARTESIAN_POINT('',(4.573852807723,0.348937814742));
#225 = CARTESIAN_POINT('',(4.600391931696,0.358159665058));
#226 = CARTESIAN_POINT('',(4.627799761282,0.365152678254));
#227 = CARTESIAN_POINT('',(4.65579941503,0.369840516894));
#228 = CARTESIAN_POINT('',(4.684094142977,0.372184233433));
#229 = CARTESIAN_POINT('',(4.712388980385,0.372184233433));
#230 = ( GEOMETRIC_REPRESENTATION_CONTEXT(2) 
PARAMETRIC_REPRESENTATION_CONTEXT() REPRESENTATION_CONTEXT('2D SPACE',''
  ) );
#231 = PCURVE('',#232,#237);
#232 = PLANE('',#233);
#233 = AXIS2_PLACEMENT_3D('',#234,#235,#236);
#234 = CARTESIAN_POINT('',(-10.,-2.2,-10.));
#235 = DIRECTION('',(-0.,1.,0.));
#236 = DIRECTION('',(0.,0.,1.));
#237 = DEFINITIONAL_REPRESENTATION('',(#238),#242);
#238 = CIRCLE('',#239,1.593452512343);
#239 = AXIS2_PLACEMENT_2D('',#240,#241);
#240 = CARTESIAN_POINT('',(10.,10.));
#241 = DIRECTION('',(1.,0.));
#242 = ( GEOMETRIC_REPRESENTATION_CONTEXT(2) 
PARAMETRIC_REPRESENTATION_CONTEXT() REPRESENTATION_CONTEXT('2D SPACE',''
  ) );
#243 = ADVANCED_FACE('',(#244),#154,.T.);
#244 = FACE_BOUND('',#245,.T.);
#245 = EDGE_LOOP('',(#246,#275,#296,#297));
#246 = ORIENTED_EDGE('',*,*,#247,.F.);
#247 = EDGE_CURVE('',#248,#248,#250,.T.);
#248 = VERTEX_POINT('',#249);
#249 = CARTESIAN_POINT('',(-9.30731567352E-16,0.,3.8));
#250 = SURFACE_CURVE('',#251,(#256,#263),.PCURVE_S1.);
#251 = CIRCLE('',#252,3.8);
#252 = AXIS2_PLACEMENT_3D('',#253,#254,#255);
#253 = CARTESIAN_POINT('',(0.,0.,0.));
#254 = DIRECTION('',(0.,1.,0.));
#255 = DIRECTION('',(0.,-0.,1.));
#256 = PCURVE('',#154,#257);
#257 = DEFINITIONAL_REPRESENTATION('',(#258),#262);
#258 = LINE('',#259,#260);
#259 = CARTESIAN_POINT('',(0.,0.3));
#260 = VECTOR('',#261,1.);
#261 = DIRECTION('',(1.,0.));
#262 = ( GEOMETRIC_REPRESENTATION_CONTEXT(2) 
PARAMETRIC_REPRESENTATION_CONTEXT() REPRESENTATION_CONTEXT('2D SPACE',''
  ) );
#263 = PCURVE('',#264,#269);
#264 = PLANE('',#265);
#265 = AXIS2_PLACEMENT_3D('',#266,#267,#268);
#266 = CARTESIAN_POINT('',(0.,0.,0.));
#267 = DIRECTION('',(0.,1.,0.));
#268 = DIRECTION('',(0.,-0.,1.));
#269 = DEFINITIONAL_REPRESENTATION('',(#270),#274);
#270 = CIRCLE('',#271,3.8);
#271 = AXIS2_PLACEMENT_2D('',#272,#273);
#272 = CARTESIAN_POINT('',(0.,0.));
#273 = DIRECTION('',(1.,0.));
#274 = ( GEOMETRIC_REPRESENTATION_CONTEXT(2) 
PARAMETRIC_REPRESENTATION_CONTEXT() REPRESENTATION_CONTEXT('2D SPACE',''
  ) );
#275 = ORIENTED_EDGE('',*,*,#276,.F.);
#276 = EDGE_CURVE('',#22,#248,#277,.T.);
#277 = SEAM_CURVE('',#278,(#282,#289),.PCURVE_S1.);
#278 = LINE('',#279,#280);
#279 = CARTESIAN_POINT('',(-9.30731567352E-16,-0.3,3.8));
#280 = VECTOR('',#281,1.);
#281 = DIRECTION('',(0.,1.,0.));
#282 = PCURVE('',#154,#283);
#283 = DEFINITIONAL_REPRESENTATION('',(#284),#288);
#284 = LINE('',#285,#286);
#285 = CARTESIAN_POINT('',(0.,-0.));
#286 = VECTOR('',#287,1.);
#287 = DIRECTION('',(0.,1.));
#288 = ( GEOMETRIC_REPRESENTATION_CONTEXT(2) 
PARAMETRIC_REPRESENTATION_CONTEXT() REPRESENTATION_CONTEXT('2D SPACE',''
  ) );
#289 = PCURVE('',#154,#290);
#290 = DEFINITIONAL_REPRESENTATION('',(#291),#295);
#291 = LINE('',#292,#293);
#292 = CARTESIAN_POINT('',(6.28318530718,-0.));
#293 = VECTOR('',#294,1.);
#294 = DIRECTION('',(0.,1.));
#295 = ( GEOMETRIC_REPRESENTATION_CONTEXT(2) 
PARAMETRIC_REPRESENTATION_CONTEXT() REPRESENTATION_CONTEXT('2D SPACE',''
  ) );
#296 = ORIENTED_EDGE('',*,*,#21,.T.);
#297 = ORIENTED_EDGE('',*,*,#276,.T.);
#298 = ADVANCED_FACE('',(#299,#302),#232,.F.);
#299 = FACE_BOUND('',#300,.F.);
#300 = EDGE_LOOP('',(#301));
#301 = ORIENTED_EDGE('',*,*,#167,.T.);
#302 = FACE_BOUND('',#303,.F.);
#303 = EDGE_LOOP('',(#304,#334,#362,#390,#418,#446));
#304 = ORIENTED_EDGE('',*,*,#305,.F.);
#305 = EDGE_CURVE('',#306,#308,#310,.T.);
#306 = VERTEX_POINT('',#307);
#307 = CARTESIAN_POINT('',(0.721687836487,-2.2,1.25));
#308 = VERTEX_POINT('',#309);
#309 = CARTESIAN_POINT('',(1.443375672974,-2.2,0.));
#310 = SURFACE_CURVE('',#311,(#315,#322),.PCURVE_S1.);
#311 = LINE('',#312,#313);
#312 = CARTESIAN_POINT('',(2.178017223313,-2.2,-1.272436490539));
#313 = VECTOR('',#314,1.);
#314 = DIRECTION('',(0.5,0.,-0.866025403784));
#315 = PCURVE('',#232,#316);
#316 = DEFINITIONAL_REPRESENTATION('',(#317),#321);
#317 = LINE('',#318,#319);
#318 = CARTESIAN_POINT('',(8.727563509461,12.178017223313));
#319 = VECTOR('',#320,1.);
#320 = DIRECTION('',(-0.866025403784,0.5));
#321 = ( GEOMETRIC_REPRESENTATION_CONTEXT(2) 
PARAMETRIC_REPRESENTATION_CONTEXT() REPRESENTATION_CONTEXT('2D SPACE',''
  ) );
#322 = PCURVE('',#323,#328);
#323 = PLANE('',#324);
#324 = AXIS2_PLACEMENT_3D('',#325,#326,#327);
#325 = CARTESIAN_POINT('',(1.443375672974,-2.3,0.));
#326 = DIRECTION('',(0.866025403784,0.,0.5));
#327 = DIRECTION('',(-0.5,0.,0.866025403784));
#328 = DEFINITIONAL_REPRESENTATION('',(#329),#333);
#329 = LINE('',#330,#331);
#330 = CARTESIAN_POINT('',(-1.469283100679,-1.E-01));
#331 = VECTOR('',#332,1.);
#332 = DIRECTION('',(-1.,0.));
#333 = ( GEOMETRIC_REPRESENTATION_CONTEXT(2) 
PARAMETRIC_REPRESENTATION_CONTEXT() REPRESENTATION_CONTEXT('2D SPACE',''
  ) );
#334 = ORIENTED_EDGE('',*,*,#335,.F.);
#335 = EDGE_CURVE('',#336,#306,#338,.T.);
#336 = VERTEX_POINT('',#337);
#337 = CARTESIAN_POINT('',(-0.721687836487,-2.2,1.25));
#338 = SURFACE_CURVE('',#339,(#343,#350),.PCURVE_S1.);
#339 = LINE('',#340,#341);
#340 = CARTESIAN_POINT('',(-4.639156081756,-2.2,1.25));
#341 = VECTOR('',#342,1.);
#342 = DIRECTION('',(1.,0.,-1.538370149107E-16));
#343 = PCURVE('',#232,#344);
#344 = DEFINITIONAL_REPRESENTATION('',(#345),#349);
#345 = LINE('',#346,#347);
#346 = CARTESIAN_POINT('',(11.25,5.360843918244));
#347 = VECTOR('',#348,1.);
#348 = DIRECTION('',(-1.538370149107E-16,1.));
#349 = ( GEOMETRIC_REPRESENTATION_CONTEXT(2) 
PARAMETRIC_REPRESENTATION_CONTEXT() REPRESENTATION_CONTEXT('2D SPACE',''
  ) );
#350 = PCURVE('',#351,#356);
#351 = PLANE('',#352);
#352 = AXIS2_PLACEMENT_3D('',#353,#354,#355);
#353 = CARTESIAN_POINT('',(0.721687836487,-2.3,1.25));
#354 = DIRECTION('',(1.538370149107E-16,0.,1.));
#355 = DIRECTION('',(-1.,0.,1.538370149107E-16));
#356 = DEFINITIONAL_REPRESENTATION('',(#357),#361);
#357 = LINE('',#358,#359);
#358 = CARTESIAN_POINT('',(5.360843918243,-1.E-01));
#359 = VECTOR('',#360,1.);
#360 = DIRECTION('',(-1.,0.));
#361 = ( GEOMETRIC_REPRESENTATION_CONTEXT(2) 
PARAMETRIC_REPRESENTATION_CONTEXT() REPRESENTATION_CONTEXT('2D SPACE',''
  ) );
#362 = ORIENTED_EDGE('',*,*,#363,.F.);
#363 = EDGE_CURVE('',#364,#336,#366,.T.);
#364 = VERTEX_POINT('',#365);
#365 = CARTESIAN_POINT('',(-1.443375672974,-2.2,1.767625397875E-16));
#366 = SURFACE_CURVE('',#367,(#371,#378),.PCURVE_S1.);
#367 = LINE('',#368,#369);
#368 = CARTESIAN_POINT('',(-4.31717330507,-2.2,-4.977563509461));
#369 = VECTOR('',#370,1.);
#370 = DIRECTION('',(0.5,0.,0.866025403784));
#371 = PCURVE('',#232,#372);
#372 = DEFINITIONAL_REPRESENTATION('',(#373),#377);
#373 = LINE('',#374,#375);
#374 = CARTESIAN_POINT('',(5.022436490539,5.68282669493));
#375 = VECTOR('',#376,1.);
#376 = DIRECTION('',(0.866025403784,0.5));
#377 = ( GEOMETRIC_REPRESENTATION_CONTEXT(2) 
PARAMETRIC_REPRESENTATION_CONTEXT() REPRESENTATION_CONTEXT('2D SPACE',''
  ) );
#378 = PCURVE('',#379,#384);
#379 = PLANE('',#380);
#380 = AXIS2_PLACEMENT_3D('',#381,#382,#383);
#381 = CARTESIAN_POINT('',(-0.721687836487,-2.3,1.25));
#382 = DIRECTION('',(-0.866025403784,0.,0.5));
#383 = DIRECTION('',(-0.5,0.,-0.866025403784));
#384 = DEFINITIONAL_REPRESENTATION('',(#385),#389);
#385 = LINE('',#386,#387);
#386 = CARTESIAN_POINT('',(7.190970937166,-1.E-01));
#387 = VECTOR('',#388,1.);
#388 = DIRECTION('',(-1.,0.));
#389 = ( GEOMETRIC_REPRESENTATION_CONTEXT(2) 
PARAMETRIC_REPRESENTATION_CONTEXT() REPRESENTATION_CONTEXT('2D SPACE',''
  ) );
#390 = ORIENTED_EDGE('',*,*,#391,.F.);
#391 = EDGE_CURVE('',#392,#364,#394,.T.);
#392 = VERTEX_POINT('',#393);
#393 = CARTESIAN_POINT('',(-0.721687836487,-2.2,-1.25));
#394 = SURFACE_CURVE('',#395,(#399,#406),.PCURVE_S1.);
#395 = LINE('',#396,#397);
#396 = CARTESIAN_POINT('',(-0.347890204391,-2.2,-1.897436490539));
#397 = VECTOR('',#398,1.);
#398 = DIRECTION('',(-0.5,-0.,0.866025403784));
#399 = PCURVE('',#232,#400);
#400 = DEFINITIONAL_REPRESENTATION('',(#401),#405);
#401 = LINE('',#402,#403);
#402 = CARTESIAN_POINT('',(8.102563509461,9.652109795609));
#403 = VECTOR('',#404,1.);
#404 = DIRECTION('',(0.866025403784,-0.5));
#405 = ( GEOMETRIC_REPRESENTATION_CONTEXT(2) 
PARAMETRIC_REPRESENTATION_CONTEXT() REPRESENTATION_CONTEXT('2D SPACE',''
  ) );
#406 = PCURVE('',#407,#412);
#407 = PLANE('',#408);
#408 = AXIS2_PLACEMENT_3D('',#409,#410,#411);
#409 = CARTESIAN_POINT('',(-1.443375672974,-2.3,1.767625397875E-16));
#410 = DIRECTION('',(-0.866025403784,-0.,-0.5));
#411 = DIRECTION('',(0.5,0.,-0.866025403784));
#412 = DEFINITIONAL_REPRESENTATION('',(#413),#417);
#413 = LINE('',#414,#415);
#414 = CARTESIAN_POINT('',(2.190970937166,-1.E-01));
#415 = VECTOR('',#416,1.);
#416 = DIRECTION('',(-1.,0.));
#417 = ( GEOMETRIC_REPRESENTATION_CONTEXT(2) 
PARAMETRIC_REPRESENTATION_CONTEXT() REPRESENTATION_CONTEXT('2D SPACE',''
  ) );
#418 = ORIENTED_EDGE('',*,*,#419,.F.);
#419 = EDGE_CURVE('',#420,#392,#422,.T.);
#420 = VERTEX_POINT('',#421);
#421 = CARTESIAN_POINT('',(0.721687836487,-2.2,-1.25));
#422 = SURFACE_CURVE('',#423,(#427,#434),.PCURVE_S1.);
#423 = LINE('',#424,#425);
#424 = CARTESIAN_POINT('',(-5.360843918244,-2.2,-1.25));
#425 = VECTOR('',#426,1.);
#426 = DIRECTION('',(-1.,-0.,6.153480596427E-16));
#427 = PCURVE('',#232,#428);
#428 = DEFINITIONAL_REPRESENTATION('',(#429),#433);
#429 = LINE('',#430,#431);
#430 = CARTESIAN_POINT('',(8.75,4.639156081756));
#431 = VECTOR('',#432,1.);
#432 = DIRECTION('',(6.153480596427E-16,-1.));
#433 = ( GEOMETRIC_REPRESENTATION_CONTEXT(2) 
PARAMETRIC_REPRESENTATION_CONTEXT() REPRESENTATION_CONTEXT('2D SPACE',''
  ) );
#434 = PCURVE('',#435,#440);
#435 = PLANE('',#436);
#436 = AXIS2_PLACEMENT_3D('',#437,#438,#439);
#437 = CARTESIAN_POINT('',(-0.721687836487,-2.3,-1.25));
#438 = DIRECTION('',(-6.153480596427E-16,-0.,-1.));
#439 = DIRECTION('',(1.,0.,-6.153480596427E-16));
#440 = DEFINITIONAL_REPRESENTATION('',(#441),#445);
#441 = LINE('',#442,#443);
#442 = CARTESIAN_POINT('',(-4.639156081757,-1.E-01));
#443 = VECTOR('',#444,1.);
#444 = DIRECTION('',(-1.,0.));
#445 = ( GEOMETRIC_REPRESENTATION_CONTEXT(2) 
PARAMETRIC_REPRESENTATION_CONTEXT() REPRESENTATION_CONTEXT('2D SPACE',''
  ) );
#446 = ORIENTED_EDGE('',*,*,#447,.F.);
#447 = EDGE_CURVE('',#308,#420,#448,.T.);
#448 = SURFACE_CURVE('',#449,(#453,#460),.PCURVE_S1.);
#449 = LINE('',#450,#451);
#450 = CARTESIAN_POINT('',(-2.512953713852,-2.2,-6.852563509461));
#451 = VECTOR('',#452,1.);
#452 = DIRECTION('',(-0.5,0.,-0.866025403784));
#453 = PCURVE('',#232,#454);
#454 = DEFINITIONAL_REPRESENTATION('',(#455),#459);
#455 = LINE('',#456,#457);
#456 = CARTESIAN_POINT('',(3.147436490539,7.487046286148));
#457 = VECTOR('',#458,1.);
#458 = DIRECTION('',(-0.866025403784,-0.5));
#459 = ( GEOMETRIC_REPRESENTATION_CONTEXT(2) 
PARAMETRIC_REPRESENTATION_CONTEXT() REPRESENTATION_CONTEXT('2D SPACE',''
  ) );
#460 = PCURVE('',#461,#466);
#461 = PLANE('',#462);
#462 = AXIS2_PLACEMENT_3D('',#463,#464,#465);
#463 = CARTESIAN_POINT('',(0.721687836487,-2.3,-1.25));
#464 = DIRECTION('',(0.866025403784,0.,-0.5));
#465 = DIRECTION('',(0.5,0.,0.866025403784));
#466 = DEFINITIONAL_REPRESENTATION('',(#467),#471);
#467 = LINE('',#468,#469);
#468 = CARTESIAN_POINT('',(-6.469283100678,-1.E-01));
#469 = VECTOR('',#470,1.);
#470 = DIRECTION('',(-1.,-0.));
#471 = ( GEOMETRIC_REPRESENTATION_CONTEXT(2) 
PARAMETRIC_REPRESENTATION_CONTEXT() REPRESENTATION_CONTEXT('2D SPACE',''
  ) );
#472 = ADVANCED_FACE('',(#473,#476),#264,.T.);
#473 = FACE_BOUND('',#474,.T.);
#474 = EDGE_LOOP('',(#475));
#475 = ORIENTED_EDGE('',*,*,#247,.T.);
#476 = FACE_BOUND('',#477,.T.);
#477 = EDGE_LOOP('',(#478));
#478 = ORIENTED_EDGE('',*,*,#479,.F.);
#479 = EDGE_CURVE('',#480,#480,#482,.T.);
#480 = VERTEX_POINT('',#481);
#481 = CARTESIAN_POINT('',(-3.918869757272E-16,0.,1.6));
#482 = SURFACE_CURVE('',#483,(#488,#495),.PCURVE_S1.);
#483 = CIRCLE('',#484,1.6);
#484 = AXIS2_PLACEMENT_3D('',#485,#486,#487);
#485 = CARTESIAN_POINT('',(0.,0.,0.));
#486 = DIRECTION('',(0.,1.,0.));
#487 = DIRECTION('',(0.,-0.,1.));
#488 = PCURVE('',#264,#489);
#489 = DEFINITIONAL_REPRESENTATION('',(#490),#494);
#490 = CIRCLE('',#491,1.6);
#491 = AXIS2_PLACEMENT_2D('',#492,#493);
#492 = CARTESIAN_POINT('',(0.,0.));
#493 = DIRECTION('',(1.,0.));
#494 = ( GEOMETRIC_REPRESENTATION_CONTEXT(2) 
PARAMETRIC_REPRESENTATION_CONTEXT() REPRESENTATION_CONTEXT('2D SPACE',''
  ) );
#495 = PCURVE('',#496,#501);
#496 = CYLINDRICAL_SURFACE('',#497,1.6);
#497 = AXIS2_PLACEMENT_3D('',#498,#499,#500);
#498 = CARTESIAN_POINT('',(0.,0.,0.));
#499 = DIRECTION('',(0.,1.,0.));
#500 = DIRECTION('',(0.,-0.,1.));
#501 = DEFINITIONAL_REPRESENTATION('',(#502),#506);
#502 = LINE('',#503,#504);
#503 = CARTESIAN_POINT('',(0.,0.));
#504 = VECTOR('',#505,1.);
#505 = DIRECTION('',(1.,0.));
#506 = ( GEOMETRIC_REPRESENTATION_CONTEXT(2) 
PARAMETRIC_REPRESENTATION_CONTEXT() REPRESENTATION_CONTEXT('2D SPACE',''
  ) );
#507 = ADVANCED_FACE('',(#508),#323,.F.);
#508 = FACE_BOUND('',#509,.F.);
#509 = EDGE_LOOP('',(#510,#511,#534,#562));
#510 = ORIENTED_EDGE('',*,*,#305,.T.);
#511 = ORIENTED_EDGE('',*,*,#512,.T.);
#512 = EDGE_CURVE('',#308,#513,#515,.T.);
#513 = VERTEX_POINT('',#514);
#514 = CARTESIAN_POINT('',(1.443375672974,-0.9,0.));
#515 = SURFACE_CURVE('',#516,(#520,#527),.PCURVE_S1.);
#516 = LINE('',#517,#518);
#517 = CARTESIAN_POINT('',(1.443375672974,-2.3,0.));
#518 = VECTOR('',#519,1.);
#519 = DIRECTION('',(-0.,1.,-0.));
#520 = PCURVE('',#323,#521);
#521 = DEFINITIONAL_REPRESENTATION('',(#522),#526);
#522 = LINE('',#523,#524);
#523 = CARTESIAN_POINT('',(0.,0.));
#524 = VECTOR('',#525,1.);
#525 = DIRECTION('',(0.,-1.));
#526 = ( GEOMETRIC_REPRESENTATION_CONTEXT(2) 
PARAMETRIC_REPRESENTATION_CONTEXT() REPRESENTATION_CONTEXT('2D SPACE',''
  ) );
#527 = PCURVE('',#461,#528);
#528 = DEFINITIONAL_REPRESENTATION('',(#529),#533);
#529 = LINE('',#530,#531);
#530 = CARTESIAN_POINT('',(1.443375672974,0.));
#531 = VECTOR('',#532,1.);
#532 = DIRECTION('',(0.,-1.));
#533 = ( GEOMETRIC_REPRESENTATION_CONTEXT(2) 
PARAMETRIC_REPRESENTATION_CONTEXT() REPRESENTATION_CONTEXT('2D SPACE',''
  ) );
#534 = ORIENTED_EDGE('',*,*,#535,.T.);
#535 = EDGE_CURVE('',#513,#536,#538,.T.);
#536 = VERTEX_POINT('',#537);
#537 = CARTESIAN_POINT('',(0.721687836487,-0.9,1.25));
#538 = SURFACE_CURVE('',#539,(#543,#550),.PCURVE_S1.);
#539 = LINE('',#540,#541);
#540 = CARTESIAN_POINT('',(1.443375672974,-0.9,0.));
#541 = VECTOR('',#542,1.);
#542 = DIRECTION('',(-0.5,0.,0.866025403784));
#543 = PCURVE('',#323,#544);
#544 = DEFINITIONAL_REPRESENTATION('',(#545),#549);
#545 = LINE('',#546,#547);
#546 = CARTESIAN_POINT('',(0.,-1.4));
#547 = VECTOR('',#548,1.);
#548 = DIRECTION('',(1.,0.));
#549 = ( GEOMETRIC_REPRESENTATION_CONTEXT(2) 
PARAMETRIC_REPRESENTATION_CONTEXT() REPRESENTATION_CONTEXT('2D SPACE',''
  ) );
#550 = PCURVE('',#551,#556);
#551 = PLANE('',#552);
#552 = AXIS2_PLACEMENT_3D('',#553,#554,#555);
#553 = CARTESIAN_POINT('',(-1.025580099405E-16,-0.9,-6.491070009073E-17)
  );
#554 = DIRECTION('',(-0.,-1.,-0.));
#555 = DIRECTION('',(0.,0.,-1.));
#556 = DEFINITIONAL_REPRESENTATION('',(#557),#561);
#557 = LINE('',#558,#559);
#558 = CARTESIAN_POINT('',(-6.491070009073E-17,1.443375672974));
#559 = VECTOR('',#560,1.);
#560 = DIRECTION('',(-0.866025403784,-0.5));
#561 = ( GEOMETRIC_REPRESENTATION_CONTEXT(2) 
PARAMETRIC_REPRESENTATION_CONTEXT() REPRESENTATION_CONTEXT('2D SPACE',''
  ) );
#562 = ORIENTED_EDGE('',*,*,#563,.F.);
#563 = EDGE_CURVE('',#306,#536,#564,.T.);
#564 = SURFACE_CURVE('',#565,(#569,#576),.PCURVE_S1.);
#565 = LINE('',#566,#567);
#566 = CARTESIAN_POINT('',(0.721687836487,-2.3,1.25));
#567 = VECTOR('',#568,1.);
#568 = DIRECTION('',(-0.,1.,-0.));
#569 = PCURVE('',#323,#570);
#570 = DEFINITIONAL_REPRESENTATION('',(#571),#575);
#571 = LINE('',#572,#573);
#572 = CARTESIAN_POINT('',(1.443375672974,0.));
#573 = VECTOR('',#574,1.);
#574 = DIRECTION('',(0.,-1.));
#575 = ( GEOMETRIC_REPRESENTATION_CONTEXT(2) 
PARAMETRIC_REPRESENTATION_CONTEXT() REPRESENTATION_CONTEXT('2D SPACE',''
  ) );
#576 = PCURVE('',#351,#577);
#577 = DEFINITIONAL_REPRESENTATION('',(#578),#582);
#578 = LINE('',#579,#580);
#579 = CARTESIAN_POINT('',(0.,0.));
#580 = VECTOR('',#581,1.);
#581 = DIRECTION('',(0.,-1.));
#582 = ( GEOMETRIC_REPRESENTATION_CONTEXT(2) 
PARAMETRIC_REPRESENTATION_CONTEXT() REPRESENTATION_CONTEXT('2D SPACE',''
  ) );
#583 = ADVANCED_FACE('',(#584),#351,.F.);
#584 = FACE_BOUND('',#585,.F.);
#585 = EDGE_LOOP('',(#586,#587,#588,#611));
#586 = ORIENTED_EDGE('',*,*,#335,.T.);
#587 = ORIENTED_EDGE('',*,*,#563,.T.);
#588 = ORIENTED_EDGE('',*,*,#589,.T.);
#589 = EDGE_CURVE('',#536,#590,#592,.T.);
#590 = VERTEX_POINT('',#591);
#591 = CARTESIAN_POINT('',(-0.721687836487,-0.9,1.25));
#592 = SURFACE_CURVE('',#593,(#597,#604),.PCURVE_S1.);
#593 = LINE('',#594,#595);
#594 = CARTESIAN_POINT('',(0.721687836487,-0.9,1.25));
#595 = VECTOR('',#596,1.);
#596 = DIRECTION('',(-1.,0.,1.538370149107E-16));
#597 = PCURVE('',#351,#598);
#598 = DEFINITIONAL_REPRESENTATION('',(#599),#603);
#599 = LINE('',#600,#601);
#600 = CARTESIAN_POINT('',(0.,-1.4));
#601 = VECTOR('',#602,1.);
#602 = DIRECTION('',(1.,0.));
#603 = ( GEOMETRIC_REPRESENTATION_CONTEXT(2) 
PARAMETRIC_REPRESENTATION_CONTEXT() REPRESENTATION_CONTEXT('2D SPACE',''
  ) );
#604 = PCURVE('',#551,#605);
#605 = DEFINITIONAL_REPRESENTATION('',(#606),#610);
#606 = LINE('',#607,#608);
#607 = CARTESIAN_POINT('',(-1.25,0.721687836487));
#608 = VECTOR('',#609,1.);
#609 = DIRECTION('',(-1.538370149107E-16,-1.));
#610 = ( GEOMETRIC_REPRESENTATION_CONTEXT(2) 
PARAMETRIC_REPRESENTATION_CONTEXT() REPRESENTATION_CONTEXT('2D SPACE',''
  ) );
#611 = ORIENTED_EDGE('',*,*,#612,.F.);
#612 = EDGE_CURVE('',#336,#590,#613,.T.);
#613 = SURFACE_CURVE('',#614,(#618,#625),.PCURVE_S1.);
#614 = LINE('',#615,#616);
#615 = CARTESIAN_POINT('',(-0.721687836487,-2.3,1.25));
#616 = VECTOR('',#617,1.);
#617 = DIRECTION('',(-0.,1.,-0.));
#618 = PCURVE('',#351,#619);
#619 = DEFINITIONAL_REPRESENTATION('',(#620),#624);
#620 = LINE('',#621,#622);
#621 = CARTESIAN_POINT('',(1.443375672974,0.));
#622 = VECTOR('',#623,1.);
#623 = DIRECTION('',(0.,-1.));
#624 = ( GEOMETRIC_REPRESENTATION_CONTEXT(2) 
PARAMETRIC_REPRESENTATION_CONTEXT() REPRESENTATION_CONTEXT('2D SPACE',''
  ) );
#625 = PCURVE('',#379,#626);
#626 = DEFINITIONAL_REPRESENTATION('',(#627),#631);
#627 = LINE('',#628,#629);
#628 = CARTESIAN_POINT('',(0.,0.));
#629 = VECTOR('',#630,1.);
#630 = DIRECTION('',(0.,-1.));
#631 = ( GEOMETRIC_REPRESENTATION_CONTEXT(2) 
PARAMETRIC_REPRESENTATION_CONTEXT() REPRESENTATION_CONTEXT('2D SPACE',''
  ) );
#632 = ADVANCED_FACE('',(#633),#379,.F.);
#633 = FACE_BOUND('',#634,.F.);
#634 = EDGE_LOOP('',(#635,#636,#637,#660));
#635 = ORIENTED_EDGE('',*,*,#363,.T.);
#636 = ORIENTED_EDGE('',*,*,#612,.T.);
#637 = ORIENTED_EDGE('',*,*,#638,.T.);
#638 = EDGE_CURVE('',#590,#639,#641,.T.);
#639 = VERTEX_POINT('',#640);
#640 = CARTESIAN_POINT('',(-1.443375672974,-0.9,1.767625397875E-16));
#641 = SURFACE_CURVE('',#642,(#646,#653),.PCURVE_S1.);
#642 = LINE('',#643,#644);
#643 = CARTESIAN_POINT('',(-0.721687836487,-0.9,1.25));
#644 = VECTOR('',#645,1.);
#645 = DIRECTION('',(-0.5,-0.,-0.866025403784));
#646 = PCURVE('',#379,#647);
#647 = DEFINITIONAL_REPRESENTATION('',(#648),#652);
#648 = LINE('',#649,#650);
#649 = CARTESIAN_POINT('',(0.,-1.4));
#650 = VECTOR('',#651,1.);
#651 = DIRECTION('',(1.,0.));
#652 = ( GEOMETRIC_REPRESENTATION_CONTEXT(2) 
PARAMETRIC_REPRESENTATION_CONTEXT() REPRESENTATION_CONTEXT('2D SPACE',''
  ) );
#653 = PCURVE('',#551,#654);
#654 = DEFINITIONAL_REPRESENTATION('',(#655),#659);
#655 = LINE('',#656,#657);
#656 = CARTESIAN_POINT('',(-1.25,-0.721687836487));
#657 = VECTOR('',#658,1.);
#658 = DIRECTION('',(0.866025403784,-0.5));
#659 = ( GEOMETRIC_REPRESENTATION_CONTEXT(2) 
PARAMETRIC_REPRESENTATION_CONTEXT() REPRESENTATION_CONTEXT('2D SPACE',''
  ) );
#660 = ORIENTED_EDGE('',*,*,#661,.F.);
#661 = EDGE_CURVE('',#364,#639,#662,.T.);
#662 = SURFACE_CURVE('',#663,(#667,#674),.PCURVE_S1.);
#663 = LINE('',#664,#665);
#664 = CARTESIAN_POINT('',(-1.443375672974,-2.3,1.767625397875E-16));
#665 = VECTOR('',#666,1.);
#666 = DIRECTION('',(-0.,1.,-0.));
#667 = PCURVE('',#379,#668);
#668 = DEFINITIONAL_REPRESENTATION('',(#669),#673);
#669 = LINE('',#670,#671);
#670 = CARTESIAN_POINT('',(1.443375672974,0.));
#671 = VECTOR('',#672,1.);
#672 = DIRECTION('',(0.,-1.));
#673 = ( GEOMETRIC_REPRESENTATION_CONTEXT(2) 
PARAMETRIC_REPRESENTATION_CONTEXT() REPRESENTATION_CONTEXT('2D SPACE',''
  ) );
#674 = PCURVE('',#407,#675);
#675 = DEFINITIONAL_REPRESENTATION('',(#676),#680);
#676 = LINE('',#677,#678);
#677 = CARTESIAN_POINT('',(0.,0.));
#678 = VECTOR('',#679,1.);
#679 = DIRECTION('',(0.,-1.));
#680 = ( GEOMETRIC_REPRESENTATION_CONTEXT(2) 
PARAMETRIC_REPRESENTATION_CONTEXT() REPRESENTATION_CONTEXT('2D SPACE',''
  ) );
#681 = ADVANCED_FACE('',(#682),#407,.F.);
#682 = FACE_BOUND('',#683,.F.);
#683 = EDGE_LOOP('',(#684,#685,#686,#709));
#684 = ORIENTED_EDGE('',*,*,#391,.T.);
#685 = ORIENTED_EDGE('',*,*,#661,.T.);
#686 = ORIENTED_EDGE('',*,*,#687,.T.);
#687 = EDGE_CURVE('',#639,#688,#690,.T.);
#688 = VERTEX_POINT('',#689);
#689 = CARTESIAN_POINT('',(-0.721687836487,-0.9,-1.25));
#690 = SURFACE_CURVE('',#691,(#695,#702),.PCURVE_S1.);
#691 = LINE('',#692,#693);
#692 = CARTESIAN_POINT('',(-1.443375672974,-0.9,1.767625397875E-16));
#693 = VECTOR('',#694,1.);
#694 = DIRECTION('',(0.5,0.,-0.866025403784));
#695 = PCURVE('',#407,#696);
#696 = DEFINITIONAL_REPRESENTATION('',(#697),#701);
#697 = LINE('',#698,#699);
#698 = CARTESIAN_POINT('',(0.,-1.4));
#699 = VECTOR('',#700,1.);
#700 = DIRECTION('',(1.,0.));
#701 = ( GEOMETRIC_REPRESENTATION_CONTEXT(2) 
PARAMETRIC_REPRESENTATION_CONTEXT() REPRESENTATION_CONTEXT('2D SPACE',''
  ) );
#702 = PCURVE('',#551,#703);
#703 = DEFINITIONAL_REPRESENTATION('',(#704),#708);
#704 = LINE('',#705,#706);
#705 = CARTESIAN_POINT('',(-2.416732398782E-16,-1.443375672974));
#706 = VECTOR('',#707,1.);
#707 = DIRECTION('',(0.866025403784,0.5));
#708 = ( GEOMETRIC_REPRESENTATION_CONTEXT(2) 
PARAMETRIC_REPRESENTATION_CONTEXT() REPRESENTATION_CONTEXT('2D SPACE',''
  ) );
#709 = ORIENTED_EDGE('',*,*,#710,.F.);
#710 = EDGE_CURVE('',#392,#688,#711,.T.);
#711 = SURFACE_CURVE('',#712,(#716,#723),.PCURVE_S1.);
#712 = LINE('',#713,#714);
#713 = CARTESIAN_POINT('',(-0.721687836487,-2.3,-1.25));
#714 = VECTOR('',#715,1.);
#715 = DIRECTION('',(-0.,1.,-0.));
#716 = PCURVE('',#407,#717);
#717 = DEFINITIONAL_REPRESENTATION('',(#718),#722);
#718 = LINE('',#719,#720);
#719 = CARTESIAN_POINT('',(1.443375672974,0.));
#720 = VECTOR('',#721,1.);
#721 = DIRECTION('',(0.,-1.));
#722 = ( GEOMETRIC_REPRESENTATION_CONTEXT(2) 
PARAMETRIC_REPRESENTATION_CONTEXT() REPRESENTATION_CONTEXT('2D SPACE',''
  ) );
#723 = PCURVE('',#435,#724);
#724 = DEFINITIONAL_REPRESENTATION('',(#725),#729);
#725 = LINE('',#726,#727);
#726 = CARTESIAN_POINT('',(0.,0.));
#727 = VECTOR('',#728,1.);
#728 = DIRECTION('',(0.,-1.));
#729 = ( GEOMETRIC_REPRESENTATION_CONTEXT(2) 
PARAMETRIC_REPRESENTATION_CONTEXT() REPRESENTATION_CONTEXT('2D SPACE',''
  ) );
#730 = ADVANCED_FACE('',(#731),#435,.F.);
#731 = FACE_BOUND('',#732,.F.);
#732 = EDGE_LOOP('',(#733,#734,#735,#758));
#733 = ORIENTED_EDGE('',*,*,#419,.T.);
#734 = ORIENTED_EDGE('',*,*,#710,.T.);
#735 = ORIENTED_EDGE('',*,*,#736,.T.);
#736 = EDGE_CURVE('',#688,#737,#739,.T.);
#737 = VERTEX_POINT('',#738);
#738 = CARTESIAN_POINT('',(0.721687836487,-0.9,-1.25));
#739 = SURFACE_CURVE('',#740,(#744,#751),.PCURVE_S1.);
#740 = LINE('',#741,#742);
#741 = CARTESIAN_POINT('',(-0.721687836487,-0.9,-1.25));
#742 = VECTOR('',#743,1.);
#743 = DIRECTION('',(1.,0.,-6.153480596427E-16));
#744 = PCURVE('',#435,#745);
#745 = DEFINITIONAL_REPRESENTATION('',(#746),#750);
#746 = LINE('',#747,#748);
#747 = CARTESIAN_POINT('',(0.,-1.4));
#748 = VECTOR('',#749,1.);
#749 = DIRECTION('',(1.,0.));
#750 = ( GEOMETRIC_REPRESENTATION_CONTEXT(2) 
PARAMETRIC_REPRESENTATION_CONTEXT() REPRESENTATION_CONTEXT('2D SPACE',''
  ) );
#751 = PCURVE('',#551,#752);
#752 = DEFINITIONAL_REPRESENTATION('',(#753),#757);
#753 = LINE('',#754,#755);
#754 = CARTESIAN_POINT('',(1.25,-0.721687836487));
#755 = VECTOR('',#756,1.);
#756 = DIRECTION('',(6.153480596427E-16,1.));
#757 = ( GEOMETRIC_REPRESENTATION_CONTEXT(2) 
PARAMETRIC_REPRESENTATION_CONTEXT() REPRESENTATION_CONTEXT('2D SPACE',''
  ) );
#758 = ORIENTED_EDGE('',*,*,#759,.F.);
#759 = EDGE_CURVE('',#420,#737,#760,.T.);
#760 = SURFACE_CURVE('',#761,(#765,#772),.PCURVE_S1.);
#761 = LINE('',#762,#763);
#762 = CARTESIAN_POINT('',(0.721687836487,-2.3,-1.25));
#763 = VECTOR('',#764,1.);
#764 = DIRECTION('',(-0.,1.,-0.));
#765 = PCURVE('',#435,#766);
#766 = DEFINITIONAL_REPRESENTATION('',(#767),#771);
#767 = LINE('',#768,#769);
#768 = CARTESIAN_POINT('',(1.443375672974,0.));
#769 = VECTOR('',#770,1.);
#770 = DIRECTION('',(0.,-1.));
#771 = ( GEOMETRIC_REPRESENTATION_CONTEXT(2) 
PARAMETRIC_REPRESENTATION_CONTEXT() REPRESENTATION_CONTEXT('2D SPACE',''
  ) );
#772 = PCURVE('',#461,#773);
#773 = DEFINITIONAL_REPRESENTATION('',(#774),#778);
#774 = LINE('',#775,#776);
#775 = CARTESIAN_POINT('',(0.,0.));
#776 = VECTOR('',#777,1.);
#777 = DIRECTION('',(0.,-1.));
#778 = ( GEOMETRIC_REPRESENTATION_CONTEXT(2) 
PARAMETRIC_REPRESENTATION_CONTEXT() REPRESENTATION_CONTEXT('2D SPACE',''
  ) );
#779 = ADVANCED_FACE('',(#780),#461,.F.);
#780 = FACE_BOUND('',#781,.F.);
#781 = EDGE_LOOP('',(#782,#783,#784,#805));
#782 = ORIENTED_EDGE('',*,*,#447,.T.);
#783 = ORIENTED_EDGE('',*,*,#759,.T.);
#784 = ORIENTED_EDGE('',*,*,#785,.T.);
#785 = EDGE_CURVE('',#737,#513,#786,.T.);
#786 = SURFACE_CURVE('',#787,(#791,#798),.PCURVE_S1.);
#787 = LINE('',#788,#789);
#788 = CARTESIAN_POINT('',(0.721687836487,-0.9,-1.25));
#789 = VECTOR('',#790,1.);
#790 = DIRECTION('',(0.5,0.,0.866025403784));
#791 = PCURVE('',#461,#792);
#792 = DEFINITIONAL_REPRESENTATION('',(#793),#797);
#793 = LINE('',#794,#795);
#794 = CARTESIAN_POINT('',(0.,-1.4));
#795 = VECTOR('',#796,1.);
#796 = DIRECTION('',(1.,0.));
#797 = ( GEOMETRIC_REPRESENTATION_CONTEXT(2) 
PARAMETRIC_REPRESENTATION_CONTEXT() REPRESENTATION_CONTEXT('2D SPACE',''
  ) );
#798 = PCURVE('',#551,#799);
#799 = DEFINITIONAL_REPRESENTATION('',(#800),#804);
#800 = LINE('',#801,#802);
#801 = CARTESIAN_POINT('',(1.25,0.721687836487));
#802 = VECTOR('',#803,1.);
#803 = DIRECTION('',(-0.866025403784,0.5));
#804 = ( GEOMETRIC_REPRESENTATION_CONTEXT(2) 
PARAMETRIC_REPRESENTATION_CONTEXT() REPRESENTATION_CONTEXT('2D SPACE',''
  ) );
#805 = ORIENTED_EDGE('',*,*,#512,.F.);
#806 = ADVANCED_FACE('',(#807),#496,.T.);
#807 = FACE_BOUND('',#808,.T.);
#808 = EDGE_LOOP('',(#809,#838,#859,#860));
#809 = ORIENTED_EDGE('',*,*,#810,.F.);
#810 = EDGE_CURVE('',#811,#811,#813,.T.);
#811 = VERTEX_POINT('',#812);
#812 = CARTESIAN_POINT('',(-3.918869757272E-16,10.,1.6));
#813 = SURFACE_CURVE('',#814,(#819,#826),.PCURVE_S1.);
#814 = CIRCLE('',#815,1.6);
#815 = AXIS2_PLACEMENT_3D('',#816,#817,#818);
#816 = CARTESIAN_POINT('',(0.,10.,0.));
#817 = DIRECTION('',(0.,1.,0.));
#818 = DIRECTION('',(0.,-0.,1.));
#819 = PCURVE('',#496,#820);
#820 = DEFINITIONAL_REPRESENTATION('',(#821),#825);
#821 = LINE('',#822,#823);
#822 = CARTESIAN_POINT('',(0.,10.));
#823 = VECTOR('',#824,1.);
#824 = DIRECTION('',(1.,0.));
#825 = ( GEOMETRIC_REPRESENTATION_CONTEXT(2) 
PARAMETRIC_REPRESENTATION_CONTEXT() REPRESENTATION_CONTEXT('2D SPACE',''
  ) );
#826 = PCURVE('',#827,#832);
#827 = PLANE('',#828);
#828 = AXIS2_PLACEMENT_3D('',#829,#830,#831);
#829 = CARTESIAN_POINT('',(-15.,10.,-15.));
#830 = DIRECTION('',(-0.,1.,0.));
#831 = DIRECTION('',(0.,0.,1.));
#832 = DEFINITIONAL_REPRESENTATION('',(#833),#837);
#833 = CIRCLE('',#834,1.6);
#834 = AXIS2_PLACEMENT_2D('',#835,#836);
#835 = CARTESIAN_POINT('',(15.,15.));
#836 = DIRECTION('',(1.,0.));
#837 = ( GEOMETRIC_REPRESENTATION_CONTEXT(2) 
PARAMETRIC_REPRESENTATION_CONTEXT() REPRESENTATION_CONTEXT('2D SPACE',''
  ) );
#838 = ORIENTED_EDGE('',*,*,#839,.F.);
#839 = EDGE_CURVE('',#480,#811,#840,.T.);
#840 = SEAM_CURVE('',#841,(#845,#852),.PCURVE_S1.);
#841 = LINE('',#842,#843);
#842 = CARTESIAN_POINT('',(-3.918869757272E-16,0.,1.6));
#843 = VECTOR('',#844,1.);
#844 = DIRECTION('',(0.,1.,0.));
#845 = PCURVE('',#496,#846);
#846 = DEFINITIONAL_REPRESENTATION('',(#847),#851);
#847 = LINE('',#848,#849);
#848 = CARTESIAN_POINT('',(6.28318530718,-0.));
#849 = VECTOR('',#850,1.);
#850 = DIRECTION('',(0.,1.));
#851 = ( GEOMETRIC_REPRESENTATION_CONTEXT(2) 
PARAMETRIC_REPRESENTATION_CONTEXT() REPRESENTATION_CONTEXT('2D SPACE',''
  ) );
#852 = PCURVE('',#496,#853);
#853 = DEFINITIONAL_REPRESENTATION('',(#854),#858);
#854 = LINE('',#855,#856);
#855 = CARTESIAN_POINT('',(0.,-0.));
#856 = VECTOR('',#857,1.);
#857 = DIRECTION('',(0.,1.));
#858 = ( GEOMETRIC_REPRESENTATION_CONTEXT(2) 
PARAMETRIC_REPRESENTATION_CONTEXT() REPRESENTATION_CONTEXT('2D SPACE',''
  ) );
#859 = ORIENTED_EDGE('',*,*,#479,.T.);
#860 = ORIENTED_EDGE('',*,*,#839,.T.);
#861 = ADVANCED_FACE('',(#862),#551,.T.);
#862 = FACE_BOUND('',#863,.T.);
#863 = EDGE_LOOP('',(#864,#865,#866,#867,#868,#869));
#864 = ORIENTED_EDGE('',*,*,#535,.T.);
#865 = ORIENTED_EDGE('',*,*,#589,.T.);
#866 = ORIENTED_EDGE('',*,*,#638,.T.);
#867 = ORIENTED_EDGE('',*,*,#687,.T.);
#868 = ORIENTED_EDGE('',*,*,#736,.T.);
#869 = ORIENTED_EDGE('',*,*,#785,.T.);
#870 = ADVANCED_FACE('',(#871),#827,.T.);
#871 = FACE_BOUND('',#872,.T.);
#872 = EDGE_LOOP('',(#873));
#873 = ORIENTED_EDGE('',*,*,#810,.T.);
#874 = ( GEOMETRIC_REPRESENTATION_CONTEXT(3) 
GLOBAL_UNCERTAINTY_ASSIGNED_CONTEXT((#878)) GLOBAL_UNIT_ASSIGNED_CONTEXT
((#875,#876,#877)) REPRESENTATION_CONTEXT('Context #1',
  '3D Context with UNIT and UNCERTAINTY') );
#875 = ( LENGTH_UNIT() NAMED_UNIT(*) SI_UNIT(.MILLI.,.METRE.) );
#876 = ( NAMED_UNIT(*) PLANE_ANGLE_UNIT() SI_UNIT($,.RADIAN.) );
#877 = ( NAMED_UNIT(*) SI_UNIT($,.STERADIAN.) SOLID_ANGLE_UNIT() );
#878 = UNCERTAINTY_MEASURE_WITH_UNIT(LENGTH_MEASURE(1.E-07),#875,
  'distance_accuracy_value','confusion accuracy');
#879 = PRODUCT_RELATED_PRODUCT_CATEGORY('part',$,(#7));
ENDSEC;
END-ISO-10303-21;
